<?xml version="1.0" encoding="UTF-8" standalone="no"?>
<!DOCTYPE svg PUBLIC "-//W3C//DTD SVG 1.1//EN"
 "http://www.w3.org/Graphics/SVG/1.1/DTD/svg11.dtd">
<!-- Generated by graphviz version 2.43.0 (0)
 -->
<!-- Title: %3 Pages: 1 -->
<svg width="464pt" height="672pt"
 viewBox="0.00 0.00 463.69 672.00" xmlns="http://www.w3.org/2000/svg" xmlns:xlink="http://www.w3.org/1999/xlink">
<g id="graph0" class="graph" transform="scale(1 1) rotate(0) translate(4 668)">
<title>%3</title>
<g id="clust1" class="cluster">
<title>system_graph</title>
<polygon fill="#666666" stroke="black" points="91.69,-473 91.69,-656 277.69,-656 277.69,-473 91.69,-473"/>
<text text-anchor="middle" x="184.69" y="-640.8" font-family="Times,serif" font-size="14.00">system</text>
</g>
<g id="clust2" class="cluster">
<title>graphics_graph</title>
<polygon fill="#664444" stroke="black" points="195.69,-228 195.69,-465 447.19,-465 447.19,-228 195.69,-228"/>
<text text-anchor="middle" x="321.44" y="-449.8" font-family="Times,serif" font-size="14.00">graphics</text>
</g>
<g id="clust3" class="cluster">
<title>physics_graph</title>
<polygon fill="#446644" stroke="black" points="199.69,-145 199.69,-220 420.19,-220 420.19,-145 199.69,-145"/>
<text text-anchor="middle" x="309.94" y="-204.8" font-family="Times,serif" font-size="14.00">physics</text>
</g>
<g id="clust4" class="cluster">
<title>audio_graph</title>
<polygon fill="#444466" stroke="black" points="206.69,-8 206.69,-137 447.69,-137 447.69,-8 206.69,-8"/>
<text text-anchor="middle" x="327.19" y="-121.8" font-family="Times,serif" font-size="14.00">audio</text>
</g>
<!-- gero -->
<g id="node1" class="node">
<title>gero</title>
<ellipse fill="#666644" stroke="black" cx="31.85" cy="-499" rx="31.7" ry="18"/>
<text text-anchor="middle" x="31.85" y="-495.3" font-family="Times,serif" font-size="14.00" fill="#eeeeee">gero</text>
</g>
<!-- system -->
<g id="node2" class="node">
<title>system</title>
<polygon fill="#666666" stroke="black" points="167.69,-517 99.69,-517 99.69,-481 167.69,-481 167.69,-517"/>
<text text-anchor="middle" x="133.69" y="-495.3" font-family="Times,serif" font-size="14.00" fill="#eeeeee">system</text>
</g>
<!-- gero&#45;&gt;system -->
<g id="edge4" class="edge">
<title>gero&#45;&gt;system</title>
<path fill="none" stroke="#aaaaaa" stroke-width="4" d="M63.89,-499C71.95,-499 80.78,-499 89.34,-499"/>
<polygon fill="#aaaaaa" stroke="#aaaaaa" stroke-width="4" points="89.59,-502.5 99.59,-499 89.59,-495.5 89.59,-502.5"/>
</g>
<!-- glm -->
<g id="node3" class="node">
<title>glm</title>
<polygon fill="#666666" stroke="black" points="269.69,-517 215.69,-517 215.69,-481 269.69,-481 269.69,-517"/>
<text text-anchor="middle" x="242.69" y="-495.3" font-family="Times,serif" font-size="14.00" fill="#eeeeee">glm</text>
</g>
<!-- system&#45;&gt;glm -->
<g id="edge1" class="edge">
<title>system&#45;&gt;glm</title>
<path fill="none" stroke="#aaaaaa" stroke-width="4" d="M167.96,-499C179.83,-499 193.24,-499 205.35,-499"/>
<polygon fill="#aaaaaa" stroke="#aaaaaa" stroke-width="4" points="205.58,-502.5 215.58,-499 205.58,-495.5 205.58,-502.5"/>
</g>
<!-- entt -->
<g id="node4" class="node">
<title>entt</title>
<polygon fill="#666666" stroke="black" points="269.69,-571 215.69,-571 215.69,-535 269.69,-535 269.69,-571"/>
<text text-anchor="middle" x="242.69" y="-549.3" font-family="Times,serif" font-size="14.00" fill="#eeeeee">entt</text>
</g>
<!-- system&#45;&gt;entt -->
<g id="edge2" class="edge">
<title>system&#45;&gt;entt</title>
<path fill="none" stroke="#aaaaaa" stroke-width="4" d="M167.96,-515.79C180.18,-521.96 194.06,-528.96 206.45,-535.21"/>
<polygon fill="#aaaaaa" stroke="#aaaaaa" stroke-width="4" points="205.08,-538.44 215.58,-539.82 208.23,-532.19 205.08,-538.44"/>
</g>
<!-- json -->
<g id="node5" class="node">
<title>json</title>
<polygon fill="#666666" stroke="black" points="269.69,-625 215.69,-625 215.69,-589 269.69,-589 269.69,-625"/>
<text text-anchor="middle" x="242.69" y="-603.3" font-family="Times,serif" font-size="14.00" fill="#eeeeee">json</text>
</g>
<!-- system&#45;&gt;json -->
<g id="edge3" class="edge">
<title>system&#45;&gt;json</title>
<path fill="none" stroke="#aaaaaa" stroke-width="4" d="M145.33,-517.05C156.33,-534.64 174.8,-561.37 195.69,-580 199.13,-583.06 202.97,-585.96 206.92,-588.63"/>
<polygon fill="#aaaaaa" stroke="#aaaaaa" stroke-width="4" points="205.31,-591.75 215.64,-594.1 209.04,-585.82 205.31,-591.75"/>
</g>
<!-- graphics -->
<g id="node6" class="node">
<title>graphics</title>
<polygon fill="#666666" stroke="black" points="281.69,-380 203.69,-380 203.69,-344 281.69,-344 281.69,-380"/>
<text text-anchor="middle" x="242.69" y="-358.3" font-family="Times,serif" font-size="14.00" fill="#eeeeee">graphics</text>
</g>
<!-- system&#45;&gt;graphics -->
<g id="edge9" class="edge">
<title>system&#45;&gt;graphics</title>
<path fill="none" stroke="#aaaaaa" stroke-width="4" d="M148.9,-480.81C167.45,-457.06 200.04,-415.34 221.24,-388.19"/>
<polygon fill="#aaaaaa" stroke="#aaaaaa" stroke-width="4" points="224.03,-390.3 227.43,-380.27 218.51,-385.99 224.03,-390.3"/>
</g>
<!-- physics -->
<g id="node11" class="node">
<title>physics</title>
<polygon fill="#666666" stroke="black" points="277.69,-189 207.69,-189 207.69,-153 277.69,-153 277.69,-189"/>
<text text-anchor="middle" x="242.69" y="-167.3" font-family="Times,serif" font-size="14.00" fill="#eeeeee">physics</text>
</g>
<!-- system&#45;&gt;physics -->
<g id="edge11" class="edge">
<title>system&#45;&gt;physics</title>
<path fill="none" stroke="#aaaaaa" stroke-width="4" d="M135.65,-480.93C138.67,-435.42 150.71,-313.32 195.69,-224 200.54,-214.37 207.54,-205.06 214.61,-197.01"/>
<polygon fill="#aaaaaa" stroke="#aaaaaa" stroke-width="4" points="217.43,-199.12 221.64,-189.41 212.28,-194.37 217.43,-199.12"/>
</g>
<!-- audio -->
<g id="node13" class="node">
<title>audio</title>
<polygon fill="#666666" stroke="black" points="270.69,-106 214.69,-106 214.69,-70 270.69,-70 270.69,-106"/>
<text text-anchor="middle" x="242.69" y="-84.3" font-family="Times,serif" font-size="14.00" fill="#eeeeee">audio</text>
</g>
<!-- system&#45;&gt;audio -->
<g id="edge14" class="edge">
<title>system&#45;&gt;audio</title>
<path fill="none" stroke="#aaaaaa" stroke-width="4" d="M134.41,-480.85C134.26,-426.48 138.82,-261.26 195.69,-141 200.3,-131.25 207.22,-121.91 214.31,-113.86"/>
<polygon fill="#aaaaaa" stroke="#aaaaaa" stroke-width="4" points="217.12,-115.98 221.36,-106.27 211.99,-111.21 217.12,-115.98"/>
</g>
<!-- sdl2 -->
<g id="node7" class="node">
<title>sdl2</title>
<polygon fill="#666666" stroke="black" points="406.69,-272 350.69,-272 350.69,-236 406.69,-236 406.69,-272"/>
<text text-anchor="middle" x="378.69" y="-250.3" font-family="Times,serif" font-size="14.00" fill="#eeeeee">SDL2</text>
</g>
<!-- graphics&#45;&gt;sdl2 -->
<g id="edge5" class="edge">
<title>graphics&#45;&gt;sdl2</title>
<path fill="none" stroke="#aaaaaa" stroke-width="4" d="M256.69,-343.91C270.27,-326.05 293.01,-298.87 317.69,-281 324.81,-275.85 333.07,-271.35 341.13,-267.59"/>
<polygon fill="#aaaaaa" stroke="#aaaaaa" stroke-width="4" points="342.69,-270.73 350.44,-263.51 339.88,-264.32 342.69,-270.73"/>
</g>
<!-- opengles3 -->
<g id="node8" class="node">
<title>opengles3</title>
<polygon fill="#666666" stroke="black" points="432.69,-326 324.69,-326 324.69,-290 432.69,-290 432.69,-326"/>
<text text-anchor="middle" x="378.69" y="-304.3" font-family="Times,serif" font-size="14.00" fill="#eeeeee">OpenGL ES3</text>
</g>
<!-- graphics&#45;&gt;opengles3 -->
<g id="edge6" class="edge">
<title>graphics&#45;&gt;opengles3</title>
<path fill="none" stroke="#aaaaaa" stroke-width="4" d="M281.73,-346.67C294.69,-341.45 309.42,-335.51 323.4,-329.88"/>
<polygon fill="#aaaaaa" stroke="#aaaaaa" stroke-width="4" points="324.95,-333.03 332.92,-326.04 322.33,-326.54 324.95,-333.03"/>
</g>
<!-- tinyObj -->
<g id="node9" class="node">
<title>tinyObj</title>
<polygon fill="#666666" stroke="black" points="414.69,-380 342.69,-380 342.69,-344 414.69,-344 414.69,-380"/>
<text text-anchor="middle" x="378.69" y="-358.3" font-family="Times,serif" font-size="14.00" fill="#eeeeee">TinyObj</text>
</g>
<!-- graphics&#45;&gt;tinyObj -->
<g id="edge7" class="edge">
<title>graphics&#45;&gt;tinyObj</title>
<path fill="none" stroke="#aaaaaa" stroke-width="4" d="M281.73,-362C297.35,-362 315.56,-362 331.9,-362"/>
<polygon fill="#aaaaaa" stroke="#aaaaaa" stroke-width="4" points="332.32,-365.5 342.32,-362 332.32,-358.5 332.32,-365.5"/>
</g>
<!-- stb_image -->
<g id="node10" class="node">
<title>stb_image</title>
<polygon fill="#666666" stroke="black" points="439.19,-434 318.19,-434 318.19,-398 439.19,-398 439.19,-434"/>
<text text-anchor="middle" x="378.69" y="-412.3" font-family="Times,serif" font-size="14.00" fill="#eeeeee">stb::stb_image</text>
</g>
<!-- graphics&#45;&gt;stb_image -->
<g id="edge8" class="edge">
<title>graphics&#45;&gt;stb_image</title>
<path fill="none" stroke="#aaaaaa" stroke-width="4" d="M281.73,-377.33C294.69,-382.55 309.42,-388.49 323.4,-394.12"/>
<polygon fill="#aaaaaa" stroke="#aaaaaa" stroke-width="4" points="322.33,-397.46 332.92,-397.96 324.95,-390.97 322.33,-397.46"/>
</g>
<!-- bullet3 -->
<g id="node12" class="node">
<title>bullet3</title>
<polygon fill="#666666" stroke="black" points="412.19,-189 345.19,-189 345.19,-153 412.19,-153 412.19,-189"/>
<text text-anchor="middle" x="378.69" y="-167.3" font-family="Times,serif" font-size="14.00" fill="#eeeeee">bullet3</text>
</g>
<!-- physics&#45;&gt;bullet3 -->
<g id="edge10" class="edge">
<title>physics&#45;&gt;bullet3</title>
<path fill="none" stroke="#aaaaaa" stroke-width="4" d="M277.85,-171C295.18,-171 316.39,-171 334.8,-171"/>
<polygon fill="#aaaaaa" stroke="#aaaaaa" stroke-width="4" points="334.98,-174.5 344.98,-171 334.98,-167.5 334.98,-174.5"/>
</g>
<!-- OpenAL -->
<g id="node14" class="node">
<title>OpenAL</title>
<polygon fill="#666666" stroke="black" points="415.19,-52 342.19,-52 342.19,-16 415.19,-16 415.19,-52"/>
<text text-anchor="middle" x="378.69" y="-30.3" font-family="Times,serif" font-size="14.00" fill="#eeeeee">OpenAL</text>
</g>
<!-- audio&#45;&gt;OpenAL -->
<g id="edge12" class="edge">
<title>audio&#45;&gt;OpenAL</title>
<path fill="none" stroke="#aaaaaa" stroke-width="4" d="M270.81,-77.07C288.5,-69.94 312.03,-60.46 332.51,-52.21"/>
<polygon fill="#aaaaaa" stroke="#aaaaaa" stroke-width="4" points="334,-55.38 341.97,-48.4 331.39,-48.89 334,-55.38"/>
</g>
<!-- stb_vorbis -->
<g id="node15" class="node">
<title>stb_vorbis</title>
<polygon fill="#666666" stroke="black" points="439.69,-106 317.69,-106 317.69,-70 439.69,-70 439.69,-106"/>
<text text-anchor="middle" x="378.69" y="-84.3" font-family="Times,serif" font-size="14.00" fill="#eeeeee">stb::stb_vorbis</text>
</g>
<!-- audio&#45;&gt;stb_vorbis -->
<g id="edge13" class="edge">
<title>audio&#45;&gt;stb_vorbis</title>
<path fill="none" stroke="#aaaaaa" stroke-width="4" d="M270.81,-88C281.6,-88 294.55,-88 307.66,-88"/>
<polygon fill="#aaaaaa" stroke="#aaaaaa" stroke-width="4" points="307.69,-91.5 317.69,-88 307.68,-84.5 307.69,-91.5"/>
</g>
</g>
</svg>
