<?xml version="1.0" encoding="UTF-8" standalone="no"?>
<!DOCTYPE svg PUBLIC "-//W3C//DTD SVG 1.1//EN"
 "http://www.w3.org/Graphics/SVG/1.1/DTD/svg11.dtd">
<!-- Generated by graphviz version 2.43.0 (0)
 -->
<!-- Title: %3 Pages: 1 -->
<svg width="1206pt" height="1780pt"
 viewBox="0.00 0.00 1206.00 1780.00" xmlns="http://www.w3.org/2000/svg" xmlns:xlink="http://www.w3.org/1999/xlink">
<g id="graph0" class="graph" transform="scale(1 1) rotate(0) translate(4 1776)">
<title>%3</title>
<!-- gero -->
<g id="node1" class="node">
<title>gero</title>
<ellipse fill="#666644" stroke="black" cx="563.4" cy="-858.58" rx="31.7" ry="18"/>
<text text-anchor="middle" x="563.4" y="-854.88" font-family="Times,serif" font-size="14.00" fill="#eeeeee">gero</text>
</g>
<!-- system -->
<g id="node2" class="node">
<title>system</title>
<polygon fill="#666666" stroke="black" points="538.46,-613.49 470.46,-613.49 470.46,-577.49 538.46,-577.49 538.46,-613.49"/>
<text text-anchor="middle" x="504.46" y="-591.79" font-family="Times,serif" font-size="14.00" fill="#eeeeee">system</text>
</g>
<!-- gero&#45;&gt;system -->
<g id="edge1" class="edge">
<title>gero&#45;&gt;system</title>
<path fill="none" stroke="#aaaaaa" stroke-width="4" d="M559.35,-840.49C549.26,-795.43 522.93,-677.9 510.78,-623.66"/>
<polygon fill="#aaaaaa" stroke="#aaaaaa" stroke-width="4" points="514.14,-622.69 508.54,-613.7 507.31,-624.22 514.14,-622.69"/>
</g>
<!-- graphics -->
<g id="node17" class="node">
<title>graphics</title>
<polygon fill="#664444" stroke="black" points="504.87,-1116.99 426.87,-1116.99 426.87,-1080.99 504.87,-1080.99 504.87,-1116.99"/>
<text text-anchor="middle" x="465.87" y="-1095.29" font-family="Times,serif" font-size="14.00" fill="#eeeeee">graphics</text>
</g>
<!-- gero&#45;&gt;graphics -->
<g id="edge16" class="edge">
<title>gero&#45;&gt;graphics</title>
<path fill="none" stroke="#aa0000" stroke-width="4" d="M556.23,-876.25C539.4,-917.75 497.25,-1021.62 477.03,-1071.46"/>
<polygon fill="#aa0000" stroke="#aa0000" stroke-width="4" points="473.7,-1070.37 473.18,-1080.96 480.18,-1073.01 473.7,-1070.37"/>
</g>
<!-- physics -->
<g id="node40" class="node">
<title>physics</title>
<polygon fill="#446644" stroke="black" points="852.49,-869.46 782.49,-869.46 782.49,-833.46 852.49,-833.46 852.49,-869.46"/>
<text text-anchor="middle" x="817.49" y="-847.76" font-family="Times,serif" font-size="14.00" fill="#eeeeee">physics</text>
</g>
<!-- gero&#45;&gt;physics -->
<g id="edge39" class="edge">
<title>gero&#45;&gt;physics</title>
<path fill="none" stroke="#00aa00" stroke-width="4" d="M595.33,-857.68C639.97,-856.43 721.27,-854.16 772.17,-852.73"/>
<polygon fill="#00aa00" stroke="#00aa00" stroke-width="4" points="772.33,-856.23 782.23,-852.45 772.14,-849.23 772.33,-856.23"/>
</g>
<!-- audio -->
<g id="node56" class="node">
<title>audio</title>
<polygon fill="#444466" stroke="black" points="431.08,-820.91 375.08,-820.91 375.08,-784.91 431.08,-784.91 431.08,-820.91"/>
<text text-anchor="middle" x="403.08" y="-799.21" font-family="Times,serif" font-size="14.00" fill="#eeeeee">audio</text>
</g>
<!-- gero&#45;&gt;audio -->
<g id="edge55" class="edge">
<title>gero&#45;&gt;audio</title>
<path fill="none" stroke="#0000aa" stroke-width="4" d="M536.21,-849.13C509.96,-840.02 470,-826.15 440.71,-815.98"/>
<polygon fill="#0000aa" stroke="#0000aa" stroke-width="4" points="441.81,-812.66 431.22,-812.68 439.52,-819.27 441.81,-812.66"/>
</g>
<!-- containers -->
<g id="node3" class="node">
<title>containers</title>
<polygon fill="#666666" stroke="black" points="424.06,-412.15 332.06,-412.15 332.06,-376.15 424.06,-376.15 424.06,-412.15"/>
<text text-anchor="middle" x="378.06" y="-390.45" font-family="Times,serif" font-size="14.00" fill="#eeeeee">containers</text>
</g>
<!-- system&#45;&gt;containers -->
<g id="edge2" class="edge">
<title>system&#45;&gt;containers</title>
<path fill="none" stroke="#aaaaaa" stroke-width="4" d="M493.02,-577.26C470.6,-541.55 420.8,-462.23 394.72,-420.68"/>
<polygon fill="#aaaaaa" stroke="#aaaaaa" stroke-width="4" points="397.66,-418.79 389.38,-412.18 391.73,-422.51 397.66,-418.79"/>
</g>
<!-- utils -->
<g id="node10" class="node">
<title>utils</title>
<polygon fill="#666666" stroke="black" points="601.9,-429.37 547.9,-429.37 547.9,-393.37 601.9,-393.37 601.9,-429.37"/>
<text text-anchor="middle" x="574.9" y="-407.67" font-family="Times,serif" font-size="14.00" fill="#eeeeee">utils</text>
</g>
<!-- system&#45;&gt;utils -->
<g id="edge9" class="edge">
<title>system&#45;&gt;utils</title>
<path fill="none" stroke="#aaaaaa" stroke-width="4" d="M511.48,-577.16C523.87,-544.76 549.71,-477.21 564.3,-439.09"/>
<polygon fill="#aaaaaa" stroke="#aaaaaa" stroke-width="4" points="567.62,-440.21 567.92,-429.62 561.08,-437.71 567.62,-440.21"/>
</g>
<!-- multi_threading -->
<g id="node15" class="node">
<title>multi_threading</title>
<polygon fill="#666666" stroke="black" points="542.23,-487.87 456.23,-487.87 456.23,-449.87 542.23,-449.87 542.23,-487.87"/>
<text text-anchor="middle" x="499.23" y="-472.67" font-family="Times,serif" font-size="14.00" fill="#eeeeee">multi</text>
<text text-anchor="middle" x="499.23" y="-457.67" font-family="Times,serif" font-size="14.00" fill="#eeeeee">threading</text>
</g>
<!-- system&#45;&gt;multi_threading -->
<g id="edge14" class="edge">
<title>system&#45;&gt;multi_threading</title>
<path fill="none" stroke="#aaaaaa" stroke-width="4" d="M503.71,-577.35C502.86,-556.74 501.46,-522.8 500.45,-498.37"/>
<polygon fill="#aaaaaa" stroke="#aaaaaa" stroke-width="4" points="503.94,-498.07 500.03,-488.23 496.95,-498.36 503.94,-498.07"/>
</g>
<!-- logger -->
<g id="node16" class="node">
<title>logger</title>
<polygon fill="#666666" stroke="black" points="416.68,-558.57 354.68,-558.57 354.68,-522.57 416.68,-522.57 416.68,-558.57"/>
<text text-anchor="middle" x="385.68" y="-536.87" font-family="Times,serif" font-size="14.00" fill="#eeeeee">logger</text>
</g>
<!-- system&#45;&gt;logger -->
<g id="edge15" class="edge">
<title>system&#45;&gt;logger</title>
<path fill="none" stroke="#aaaaaa" stroke-width="4" d="M470.42,-579.75C456.59,-573.35 440.5,-565.91 426.07,-559.25"/>
<polygon fill="#aaaaaa" stroke="#aaaaaa" stroke-width="4" points="427.42,-556.01 416.88,-554.99 424.48,-562.37 427.42,-556.01"/>
</g>
<!-- dynamic -->
<g id="node4" class="node">
<title>dynamic</title>
<polygon fill="#666666" stroke="black" points="229.81,-299.43 152.81,-299.43 152.81,-263.43 229.81,-263.43 229.81,-299.43"/>
<text text-anchor="middle" x="191.31" y="-277.73" font-family="Times,serif" font-size="14.00" fill="#eeeeee">dynamic</text>
</g>
<!-- containers&#45;&gt;dynamic -->
<g id="edge3" class="edge">
<title>containers&#45;&gt;dynamic</title>
<path fill="none" stroke="#aaaaaa" stroke-width="4" d="M348.05,-376.04C316.06,-356.73 265.28,-326.08 230.24,-304.92"/>
<polygon fill="#aaaaaa" stroke="#aaaaaa" stroke-width="4" points="231.61,-301.67 221.24,-299.49 227.99,-307.66 231.61,-301.67"/>
</g>
<!-- static -->
<g id="node7" class="node">
<title>static</title>
<polygon fill="#666666" stroke="black" points="397.19,-216.04 341.19,-216.04 341.19,-180.04 397.19,-180.04 397.19,-216.04"/>
<text text-anchor="middle" x="369.19" y="-194.34" font-family="Times,serif" font-size="14.00" fill="#eeeeee">static</text>
</g>
<!-- containers&#45;&gt;static -->
<g id="edge6" class="edge">
<title>containers&#45;&gt;static</title>
<path fill="none" stroke="#aaaaaa" stroke-width="4" d="M377.24,-376.05C375.69,-341.75 372.31,-267.08 370.46,-226.19"/>
<polygon fill="#aaaaaa" stroke="#aaaaaa" stroke-width="4" points="373.95,-225.93 370.01,-216.09 366.96,-226.24 373.95,-225.93"/>
</g>
<!-- weak_ref -->
<g id="node9" class="node">
<title>weak_ref</title>
<polygon fill="#666666" stroke="black" points="332.36,-250.68 238.36,-250.68 238.36,-197.68 332.36,-197.68 332.36,-250.68"/>
<text text-anchor="middle" x="285.36" y="-235.48" font-family="Times,serif" font-size="14.00" fill="#eeeeee">weak ref</text>
<text text-anchor="middle" x="285.36" y="-220.48" font-family="Times,serif" font-size="14.00" fill="#eeeeee">heap array</text>
<text text-anchor="middle" x="285.36" y="-205.48" font-family="Times,serif" font-size="14.00" fill="#eeeeee">pool</text>
</g>
<!-- containers&#45;&gt;weak_ref -->
<g id="edge8" class="edge">
<title>containers&#45;&gt;weak_ref</title>
<path fill="none" stroke="#aaaaaa" stroke-width="4" d="M368.14,-375.96C353.09,-348.36 324.2,-295.39 304.84,-259.91"/>
<polygon fill="#aaaaaa" stroke="#aaaaaa" stroke-width="4" points="307.76,-257.95 299.9,-250.85 301.62,-261.31 307.76,-257.95"/>
</g>
<!-- linked_list -->
<g id="node5" class="node">
<title>linked_list</title>
<polygon fill="#666666" stroke="black" points="137.88,-171.3 72.88,-171.3 72.88,-118.3 137.88,-118.3 137.88,-171.3"/>
<text text-anchor="middle" x="105.38" y="-156.1" font-family="Times,serif" font-size="14.00" fill="#eeeeee">double</text>
<text text-anchor="middle" x="105.38" y="-141.1" font-family="Times,serif" font-size="14.00" fill="#eeeeee">linked</text>
<text text-anchor="middle" x="105.38" y="-126.1" font-family="Times,serif" font-size="14.00" fill="#eeeeee">list</text>
</g>
<!-- dynamic&#45;&gt;linked_list -->
<g id="edge4" class="edge">
<title>dynamic&#45;&gt;linked_list</title>
<path fill="none" stroke="#aaaaaa" stroke-width="4" d="M179.9,-263.29C166.61,-242.16 144.35,-206.75 127.61,-180.14"/>
<polygon fill="#aaaaaa" stroke="#aaaaaa" stroke-width="4" points="130.45,-178.08 122.16,-171.48 124.52,-181.81 130.45,-178.08"/>
</g>
<!-- heap_array -->
<g id="node6" class="node">
<title>heap_array</title>
<polygon fill="#666666" stroke="black" points="94.25,-217.97 0.25,-217.97 0.25,-181.97 94.25,-181.97 94.25,-217.97"/>
<text text-anchor="middle" x="47.25" y="-196.27" font-family="Times,serif" font-size="14.00" fill="#eeeeee">heap array</text>
</g>
<!-- dynamic&#45;&gt;heap_array -->
<g id="edge5" class="edge">
<title>dynamic&#45;&gt;heap_array</title>
<path fill="none" stroke="#aaaaaa" stroke-width="4" d="M159.34,-263.35C138.26,-251.43 110.48,-235.72 87.84,-222.92"/>
<polygon fill="#aaaaaa" stroke="#aaaaaa" stroke-width="4" points="89.56,-219.87 79.13,-217.99 86.11,-225.96 89.56,-219.87"/>
</g>
<!-- heap_grid_array -->
<g id="node8" class="node">
<title>heap_grid_array</title>
<polygon fill="#666666" stroke="black" points="408.43,-36.44 280.43,-36.44 280.43,-0.44 408.43,-0.44 408.43,-36.44"/>
<text text-anchor="middle" x="344.43" y="-14.74" font-family="Times,serif" font-size="14.00" fill="#eeeeee">heap grid array</text>
</g>
<!-- static&#45;&gt;heap_grid_array -->
<g id="edge7" class="edge">
<title>static&#45;&gt;heap_grid_array</title>
<path fill="none" stroke="#aaaaaa" stroke-width="4" d="M366.68,-179.83C362.36,-148.5 353.49,-84.18 348.35,-46.9"/>
<polygon fill="#aaaaaa" stroke="#aaaaaa" stroke-width="4" points="351.78,-46.13 346.95,-36.7 344.85,-47.09 351.78,-46.13"/>
</g>
<!-- math -->
<g id="node11" class="node">
<title>math</title>
<polygon fill="#666666" stroke="black" points="541.19,-300.79 487.19,-300.79 487.19,-264.79 541.19,-264.79 541.19,-300.79"/>
<text text-anchor="middle" x="514.19" y="-279.09" font-family="Times,serif" font-size="14.00" fill="#eeeeee">math</text>
</g>
<!-- utils&#45;&gt;math -->
<g id="edge10" class="edge">
<title>utils&#45;&gt;math</title>
<path fill="none" stroke="#aaaaaa" stroke-width="4" d="M566.33,-393.22C556.12,-371.58 538.94,-335.22 527.11,-310.16"/>
<polygon fill="#aaaaaa" stroke="#aaaaaa" stroke-width="4" points="530.15,-308.39 522.71,-300.85 523.82,-311.38 530.15,-308.39"/>
</g>
<!-- string -->
<g id="node12" class="node">
<title>string</title>
<polygon fill="#666666" stroke="black" points="608.58,-267.68 549.58,-267.68 549.58,-231.68 608.58,-231.68 608.58,-267.68"/>
<text text-anchor="middle" x="579.08" y="-245.98" font-family="Times,serif" font-size="14.00" fill="#eeeeee">string</text>
</g>
<!-- utils&#45;&gt;string -->
<g id="edge11" class="edge">
<title>utils&#45;&gt;string</title>
<path fill="none" stroke="#aaaaaa" stroke-width="4" d="M575.37,-393.13C576.09,-365.23 577.48,-311.7 578.33,-278.51"/>
<polygon fill="#aaaaaa" stroke="#aaaaaa" stroke-width="4" points="581.84,-278.18 578.6,-268.1 574.85,-278 581.84,-278.18"/>
</g>
<!-- file -->
<g id="node13" class="node">
<title>file</title>
<polygon fill="#666666" stroke="black" points="691.09,-306.86 637.09,-306.86 637.09,-270.86 691.09,-270.86 691.09,-306.86"/>
<text text-anchor="middle" x="664.09" y="-285.16" font-family="Times,serif" font-size="14.00" fill="#eeeeee">file</text>
</g>
<!-- utils&#45;&gt;file -->
<g id="edge12" class="edge">
<title>utils&#45;&gt;file</title>
<path fill="none" stroke="#aaaaaa" stroke-width="4" d="M588.06,-393.29C603.08,-372.66 627.78,-338.74 644.93,-315.18"/>
<polygon fill="#aaaaaa" stroke="#aaaaaa" stroke-width="4" points="647.82,-317.16 650.88,-307.01 642.16,-313.04 647.82,-317.16"/>
</g>
<!-- parser -->
<g id="node14" class="node">
<title>parser</title>
<polygon fill="#666666" stroke="black" points="735.13,-355.63 672.13,-355.63 672.13,-319.63 735.13,-319.63 735.13,-355.63"/>
<text text-anchor="middle" x="703.63" y="-333.93" font-family="Times,serif" font-size="14.00" fill="#eeeeee">parser</text>
</g>
<!-- utils&#45;&gt;parser -->
<g id="edge13" class="edge">
<title>utils&#45;&gt;parser</title>
<path fill="none" stroke="#aaaaaa" stroke-width="4" d="M602.2,-395.73C619.87,-385.61 643.18,-372.25 663,-360.9"/>
<polygon fill="#aaaaaa" stroke="#aaaaaa" stroke-width="4" points="664.89,-363.85 671.83,-355.84 661.42,-357.78 664.89,-363.85"/>
</g>
<!-- camera -->
<g id="node18" class="node">
<title>camera</title>
<polygon fill="#664444" stroke="black" points="398.05,-1032.9 329.05,-1032.9 329.05,-996.9 398.05,-996.9 398.05,-1032.9"/>
<text text-anchor="middle" x="363.55" y="-1011.2" font-family="Times,serif" font-size="14.00" fill="#eeeeee">camera</text>
</g>
<!-- graphics&#45;&gt;camera -->
<g id="edge17" class="edge">
<title>graphics&#45;&gt;camera</title>
<path fill="none" stroke="#aa0000" stroke-width="4" d="M443.92,-1080.95C429.22,-1068.87 409.68,-1052.81 393.55,-1039.55"/>
<polygon fill="#aa0000" stroke="#aa0000" stroke-width="4" points="395.41,-1036.55 385.46,-1032.91 390.97,-1041.96 395.41,-1036.55"/>
</g>
<!-- sdl2 -->
<g id="node19" class="node">
<title>sdl2</title>
<polygon fill="#664444" stroke="black" points="408,-1210.17 354,-1210.17 354,-1174.17 408,-1174.17 408,-1210.17"/>
<text text-anchor="middle" x="381" y="-1188.47" font-family="Times,serif" font-size="14.00" fill="#eeeeee">sdl2</text>
</g>
<!-- graphics&#45;&gt;sdl2 -->
<g id="edge18" class="edge">
<title>graphics&#45;&gt;sdl2</title>
<path fill="none" stroke="#aa0000" stroke-width="4" d="M449.1,-1117.4C436.35,-1131.4 418.64,-1150.84 404.48,-1166.39"/>
<polygon fill="#aa0000" stroke="#aa0000" stroke-width="4" points="401.59,-1164.37 397.44,-1174.12 406.76,-1169.08 401.59,-1164.37"/>
</g>
<!-- obj_loader -->
<g id="node20" class="node">
<title>obj_loader</title>
<polygon fill="#664444" stroke="black" points="364.41,-1090.48 302.41,-1090.48 302.41,-1052.48 364.41,-1052.48 364.41,-1090.48"/>
<text text-anchor="middle" x="333.41" y="-1075.28" font-family="Times,serif" font-size="14.00" fill="#eeeeee">obj</text>
<text text-anchor="middle" x="333.41" y="-1060.28" font-family="Times,serif" font-size="14.00" fill="#eeeeee">loader</text>
</g>
<!-- graphics&#45;&gt;obj_loader -->
<g id="edge19" class="edge">
<title>graphics&#45;&gt;obj_loader</title>
<path fill="none" stroke="#aa0000" stroke-width="4" d="M426.84,-1090.88C410.41,-1087.47 391.28,-1083.5 374.62,-1080.03"/>
<polygon fill="#aa0000" stroke="#aa0000" stroke-width="4" points="375.12,-1076.56 364.61,-1077.96 373.69,-1083.42 375.12,-1076.56"/>
</g>
<!-- prim_geo_bldr -->
<g id="node21" class="node">
<title>prim_geo_bldr</title>
<polygon fill="#664444" stroke="black" points="335.62,-1159.4 238.62,-1159.4 238.62,-1106.4 335.62,-1106.4 335.62,-1159.4"/>
<text text-anchor="middle" x="287.12" y="-1144.2" font-family="Times,serif" font-size="14.00" fill="#eeeeee">primitive</text>
<text text-anchor="middle" x="287.12" y="-1129.2" font-family="Times,serif" font-size="14.00" fill="#eeeeee">geometries</text>
<text text-anchor="middle" x="287.12" y="-1114.2" font-family="Times,serif" font-size="14.00" fill="#eeeeee">builder</text>
</g>
<!-- graphics&#45;&gt;prim_geo_bldr -->
<g id="edge20" class="edge">
<title>graphics&#45;&gt;prim_geo_bldr</title>
<path fill="none" stroke="#aa0000" stroke-width="4" d="M426.64,-1106.43C402.95,-1110.93 372.3,-1116.74 345.77,-1121.77"/>
<polygon fill="#aa0000" stroke="#aa0000" stroke-width="4" points="345,-1118.36 335.83,-1123.66 346.31,-1125.23 345,-1118.36"/>
</g>
<!-- openGL_es3 -->
<g id="node22" class="node">
<title>openGL_es3</title>
<polygon fill="#664444" stroke="black" points="469.36,-1416.03 395.36,-1416.03 395.36,-1378.03 469.36,-1378.03 469.36,-1416.03"/>
<text text-anchor="middle" x="432.36" y="-1400.83" font-family="Times,serif" font-size="14.00" fill="#eeeeee">OpenGL</text>
<text text-anchor="middle" x="432.36" y="-1385.83" font-family="Times,serif" font-size="14.00" fill="#eeeeee">ES3</text>
</g>
<!-- graphics&#45;&gt;openGL_es3 -->
<g id="edge21" class="edge">
<title>graphics&#45;&gt;openGL_es3</title>
<path fill="none" stroke="#aa0000" stroke-width="4" d="M463.82,-1117.18C458.21,-1167.14 442.51,-1306.75 435.65,-1367.81"/>
<polygon fill="#aa0000" stroke="#aa0000" stroke-width="4" points="432.15,-1367.6 434.51,-1377.92 439.11,-1368.38 432.15,-1367.6"/>
</g>
<!-- context -->
<g id="node23" class="node">
<title>context</title>
<polygon fill="#664444" stroke="black" points="347.35,-1486.71 277.35,-1486.71 277.35,-1450.71 347.35,-1450.71 347.35,-1486.71"/>
<text text-anchor="middle" x="312.35" y="-1465.01" font-family="Times,serif" font-size="14.00" fill="#eeeeee">context</text>
</g>
<!-- openGL_es3&#45;&gt;context -->
<g id="edge22" class="edge">
<title>openGL_es3&#45;&gt;context</title>
<path fill="none" stroke="#aa0000" stroke-width="4" d="M400.52,-1416.05C385.54,-1424.99 367.53,-1435.75 351.71,-1445.2"/>
<polygon fill="#aa0000" stroke="#aa0000" stroke-width="4" points="349.48,-1442.45 342.69,-1450.59 353.07,-1448.46 349.48,-1442.45"/>
</g>
<!-- image -->
<g id="node24" class="node">
<title>image</title>
<polygon fill="#664444" stroke="black" points="495.68,-1540.3 435.68,-1540.3 435.68,-1504.3 495.68,-1504.3 495.68,-1540.3"/>
<text text-anchor="middle" x="465.68" y="-1518.6" font-family="Times,serif" font-size="14.00" fill="#eeeeee">image</text>
</g>
<!-- openGL_es3&#45;&gt;image -->
<g id="edge23" class="edge">
<title>openGL_es3&#45;&gt;image</title>
<path fill="none" stroke="#aa0000" stroke-width="4" d="M437.42,-1416.05C442.94,-1436.8 451.83,-1470.22 458.16,-1494.04"/>
<polygon fill="#aa0000" stroke="#aa0000" stroke-width="4" points="454.83,-1495.15 460.79,-1503.91 461.6,-1493.35 454.83,-1495.15"/>
</g>
<!-- textures -->
<g id="node25" class="node">
<title>textures</title>
<polygon fill="#664444" stroke="black" points="599.17,-1604.76 522.17,-1604.76 522.17,-1568.76 599.17,-1568.76 599.17,-1604.76"/>
<text text-anchor="middle" x="560.67" y="-1583.06" font-family="Times,serif" font-size="14.00" fill="#eeeeee">textures</text>
</g>
<!-- openGL_es3&#45;&gt;textures -->
<g id="edge24" class="edge">
<title>openGL_es3&#45;&gt;textures</title>
<path fill="none" stroke="#aa0000" stroke-width="4" d="M445.37,-1416.26C468.37,-1450.28 516.27,-1521.11 542.51,-1559.91"/>
<polygon fill="#aa0000" stroke="#aa0000" stroke-width="4" points="539.88,-1562.27 548.38,-1568.59 545.68,-1558.35 539.88,-1562.27"/>
</g>
<!-- shader -->
<g id="node29" class="node">
<title>shader</title>
<polygon fill="#664444" stroke="black" points="431.77,-1598.31 366.77,-1598.31 366.77,-1562.31 431.77,-1562.31 431.77,-1598.31"/>
<text text-anchor="middle" x="399.27" y="-1576.61" font-family="Times,serif" font-size="14.00" fill="#eeeeee">shader</text>
</g>
<!-- openGL_es3&#45;&gt;shader -->
<g id="edge28" class="edge">
<title>openGL_es3&#45;&gt;shader</title>
<path fill="none" stroke="#aa0000" stroke-width="4" d="M428.89,-1416.3C423.04,-1448.67 411.22,-1514.13 404.41,-1551.82"/>
<polygon fill="#aa0000" stroke="#aa0000" stroke-width="4" points="400.89,-1551.66 402.56,-1562.12 407.78,-1552.9 400.89,-1551.66"/>
</g>
<!-- geometry -->
<g id="node32" class="node">
<title>geometry</title>
<polygon fill="#664444" stroke="black" points="312.36,-1533.51 227.36,-1533.51 227.36,-1497.51 312.36,-1497.51 312.36,-1533.51"/>
<text text-anchor="middle" x="269.86" y="-1511.81" font-family="Times,serif" font-size="14.00" fill="#eeeeee">geometry</text>
</g>
<!-- openGL_es3&#45;&gt;geometry -->
<g id="edge31" class="edge">
<title>openGL_es3&#45;&gt;geometry</title>
<path fill="none" stroke="#aa0000" stroke-width="4" d="M406.26,-1416.06C378.13,-1436.57 333.3,-1469.26 302.78,-1491.51"/>
<polygon fill="#aa0000" stroke="#aa0000" stroke-width="4" points="300.59,-1488.78 294.57,-1497.5 304.72,-1494.43 300.59,-1488.78"/>
</g>
<!-- vbo -->
<g id="node35" class="node">
<title>vbo</title>
<polygon fill="#664444" stroke="black" points="562.6,-1495.94 508.6,-1495.94 508.6,-1459.94 562.6,-1459.94 562.6,-1495.94"/>
<text text-anchor="middle" x="535.6" y="-1474.24" font-family="Times,serif" font-size="14.00" fill="#eeeeee">vbo</text>
</g>
<!-- openGL_es3&#45;&gt;vbo -->
<g id="edge34" class="edge">
<title>openGL_es3&#45;&gt;vbo</title>
<path fill="none" stroke="#aa0000" stroke-width="4" d="M456.83,-1416.2C471.02,-1427.32 489.03,-1441.44 504.25,-1453.37"/>
<polygon fill="#aa0000" stroke="#aa0000" stroke-width="4" points="502.34,-1456.32 512.37,-1459.74 506.66,-1450.81 502.34,-1456.32"/>
</g>
<!-- vao -->
<g id="node36" class="node">
<title>vao</title>
<polygon fill="#664444" stroke="black" points="327.4,-1369.18 273.4,-1369.18 273.4,-1333.18 327.4,-1333.18 327.4,-1369.18"/>
<text text-anchor="middle" x="300.4" y="-1347.48" font-family="Times,serif" font-size="14.00" fill="#eeeeee">vao</text>
</g>
<!-- openGL_es3&#45;&gt;vao -->
<g id="edge35" class="edge">
<title>openGL_es3&#45;&gt;vao</title>
<path fill="none" stroke="#aa0000" stroke-width="4" d="M395.25,-1384.13C377.11,-1377.83 355.35,-1370.27 337.24,-1363.98"/>
<polygon fill="#aa0000" stroke="#aa0000" stroke-width="4" points="338.2,-1360.61 327.61,-1360.63 335.91,-1367.22 338.2,-1360.61"/>
</g>
<!-- frame_buffer -->
<g id="node37" class="node">
<title>frame_buffer</title>
<polygon fill="#664444" stroke="black" points="314.75,-1429.37 254.75,-1429.37 254.75,-1391.37 314.75,-1391.37 314.75,-1429.37"/>
<text text-anchor="middle" x="284.75" y="-1414.17" font-family="Times,serif" font-size="14.00" fill="#eeeeee">frame</text>
<text text-anchor="middle" x="284.75" y="-1399.17" font-family="Times,serif" font-size="14.00" fill="#eeeeee">buffer</text>
</g>
<!-- openGL_es3&#45;&gt;frame_buffer -->
<g id="edge36" class="edge">
<title>openGL_es3&#45;&gt;frame_buffer</title>
<path fill="none" stroke="#aa0000" stroke-width="4" d="M395.12,-1400.39C373.73,-1402.33 346.88,-1404.75 325.01,-1406.73"/>
<polygon fill="#aa0000" stroke="#aa0000" stroke-width="4" points="324.68,-1403.25 315.04,-1407.63 325.31,-1410.22 324.68,-1403.25"/>
</g>
<!-- render_buffer -->
<g id="node38" class="node">
<title>render_buffer</title>
<polygon fill="#664444" stroke="black" points="605.62,-1429.13 540.62,-1429.13 540.62,-1391.13 605.62,-1391.13 605.62,-1429.13"/>
<text text-anchor="middle" x="573.12" y="-1413.93" font-family="Times,serif" font-size="14.00" fill="#eeeeee">render</text>
<text text-anchor="middle" x="573.12" y="-1398.93" font-family="Times,serif" font-size="14.00" fill="#eeeeee">buffer</text>
</g>
<!-- openGL_es3&#45;&gt;render_buffer -->
<g id="edge37" class="edge">
<title>openGL_es3&#45;&gt;render_buffer</title>
<path fill="none" stroke="#aa0000" stroke-width="4" d="M469.71,-1400.5C488.35,-1402.24 510.99,-1404.35 530.33,-1406.15"/>
<polygon fill="#aa0000" stroke="#aa0000" stroke-width="4" points="530.11,-1409.64 540.39,-1407.08 530.76,-1402.67 530.11,-1409.64"/>
</g>
<!-- resc_mangr -->
<g id="node39" class="node">
<title>resc_mangr</title>
<polygon fill="#664444" stroke="black" points="404.39,-1542.95 324.39,-1542.95 324.39,-1504.95 404.39,-1504.95 404.39,-1542.95"/>
<text text-anchor="middle" x="364.39" y="-1527.75" font-family="Times,serif" font-size="14.00" fill="#eeeeee">resource</text>
<text text-anchor="middle" x="364.39" y="-1512.75" font-family="Times,serif" font-size="14.00" fill="#eeeeee">manager</text>
</g>
<!-- openGL_es3&#45;&gt;resc_mangr -->
<g id="edge38" class="edge">
<title>openGL_es3&#45;&gt;resc_mangr</title>
<path fill="none" stroke="#aa0000" stroke-width="4" d="M422.19,-1416.03C410.88,-1437.15 392.49,-1471.48 379.5,-1495.74"/>
<polygon fill="#aa0000" stroke="#aa0000" stroke-width="4" points="376.27,-1494.35 374.64,-1504.82 382.44,-1497.65 376.27,-1494.35"/>
</g>
<!-- color -->
<g id="node26" class="node">
<title>color</title>
<polygon fill="#664444" stroke="black" points="723.92,-1692.63 669.92,-1692.63 669.92,-1656.63 723.92,-1656.63 723.92,-1692.63"/>
<text text-anchor="middle" x="696.92" y="-1670.93" font-family="Times,serif" font-size="14.00" fill="#eeeeee">color</text>
</g>
<!-- textures&#45;&gt;color -->
<g id="edge25" class="edge">
<title>textures&#45;&gt;color</title>
<path fill="none" stroke="#aa0000" stroke-width="4" d="M588.9,-1604.97C609.82,-1618.46 638.48,-1636.95 661.03,-1651.49"/>
<polygon fill="#aa0000" stroke="#aa0000" stroke-width="4" points="659.35,-1654.57 669.65,-1657.05 663.14,-1648.68 659.35,-1654.57"/>
</g>
<!-- depth -->
<g id="node27" class="node">
<title>depth</title>
<polygon fill="#664444" stroke="black" points="609.42,-1772.09 551.42,-1772.09 551.42,-1736.09 609.42,-1736.09 609.42,-1772.09"/>
<text text-anchor="middle" x="580.42" y="-1750.39" font-family="Times,serif" font-size="14.00" fill="#eeeeee">depth</text>
</g>
<!-- textures&#45;&gt;depth -->
<g id="edge26" class="edge">
<title>textures&#45;&gt;depth</title>
<path fill="none" stroke="#aa0000" stroke-width="4" d="M562.82,-1604.99C566.25,-1634.03 572.98,-1691.05 577.05,-1725.54"/>
<polygon fill="#aa0000" stroke="#aa0000" stroke-width="4" points="573.63,-1726.37 578.27,-1735.89 580.58,-1725.54 573.63,-1726.37"/>
</g>
<!-- data -->
<g id="node28" class="node">
<title>data</title>
<polygon fill="#664444" stroke="black" points="675.14,-1747.78 621.14,-1747.78 621.14,-1711.78 675.14,-1711.78 675.14,-1747.78"/>
<text text-anchor="middle" x="648.14" y="-1726.08" font-family="Times,serif" font-size="14.00" fill="#eeeeee">data</text>
</g>
<!-- textures&#45;&gt;data -->
<g id="edge27" class="edge">
<title>textures&#45;&gt;data</title>
<path fill="none" stroke="#aa0000" stroke-width="4" d="M571.74,-1604.88C586.84,-1629.56 614.01,-1673.98 631.55,-1702.65"/>
<polygon fill="#aa0000" stroke="#aa0000" stroke-width="4" points="628.67,-1704.66 636.87,-1711.36 634.64,-1701 628.67,-1704.66"/>
</g>
<!-- program -->
<g id="node30" class="node">
<title>program</title>
<polygon fill="#664444" stroke="black" points="353.32,-1746.1 275.32,-1746.1 275.32,-1710.1 353.32,-1710.1 353.32,-1746.1"/>
<text text-anchor="middle" x="314.32" y="-1724.4" font-family="Times,serif" font-size="14.00" fill="#eeeeee">program</text>
</g>
<!-- shader&#45;&gt;program -->
<g id="edge29" class="edge">
<title>shader&#45;&gt;program</title>
<path fill="none" stroke="#aa0000" stroke-width="4" d="M388.85,-1598.43C374.14,-1624.03 347.16,-1670.97 330.01,-1700.79"/>
<polygon fill="#aa0000" stroke="#aa0000" stroke-width="4" points="326.77,-1699.42 324.82,-1709.83 332.84,-1702.9 326.77,-1699.42"/>
</g>
<!-- shader_builder -->
<g id="node31" class="node">
<title>shader_builder</title>
<polygon fill="#664444" stroke="black" points="454.86,-1761.76 386.86,-1761.76 386.86,-1723.76 454.86,-1723.76 454.86,-1761.76"/>
<text text-anchor="middle" x="420.86" y="-1746.56" font-family="Times,serif" font-size="14.00" fill="#eeeeee">shader</text>
<text text-anchor="middle" x="420.86" y="-1731.56" font-family="Times,serif" font-size="14.00" fill="#eeeeee">builder</text>
</g>
<!-- shader&#45;&gt;shader_builder -->
<g id="edge30" class="edge">
<title>shader&#45;&gt;shader_builder</title>
<path fill="none" stroke="#aa0000" stroke-width="4" d="M401.66,-1598.32C405.37,-1626.2 412.53,-1680.08 416.98,-1713.57"/>
<polygon fill="#aa0000" stroke="#aa0000" stroke-width="4" points="413.54,-1714.22 418.32,-1723.67 420.47,-1713.29 413.54,-1714.22"/>
</g>
<!-- instancing -->
<g id="node33" class="node">
<title>instancing</title>
<polygon fill="#664444" stroke="black" points="197.12,-1684.68 106.12,-1684.68 106.12,-1648.68 197.12,-1648.68 197.12,-1684.68"/>
<text text-anchor="middle" x="151.62" y="-1662.98" font-family="Times,serif" font-size="14.00" fill="#eeeeee">instancing</text>
</g>
<!-- geometry&#45;&gt;instancing -->
<g id="edge32" class="edge">
<title>geometry&#45;&gt;instancing</title>
<path fill="none" stroke="#aa0000" stroke-width="4" d="M255.6,-1533.75C234.82,-1560.31 196.12,-1609.78 172.24,-1640.31"/>
<polygon fill="#aa0000" stroke="#aa0000" stroke-width="4" points="169.33,-1638.35 165.93,-1648.38 174.85,-1642.66 169.33,-1638.35"/>
</g>
<!-- geo_builder -->
<g id="node34" class="node">
<title>geo_builder</title>
<polygon fill="#664444" stroke="black" points="145.55,-1619.5 60.55,-1619.5 60.55,-1581.5 145.55,-1581.5 145.55,-1619.5"/>
<text text-anchor="middle" x="103.05" y="-1604.3" font-family="Times,serif" font-size="14.00" fill="#eeeeee">geometry</text>
<text text-anchor="middle" x="103.05" y="-1589.3" font-family="Times,serif" font-size="14.00" fill="#eeeeee">builder</text>
</g>
<!-- geometry&#45;&gt;geo_builder -->
<g id="edge33" class="edge">
<title>geometry&#45;&gt;geo_builder</title>
<path fill="none" stroke="#aa0000" stroke-width="4" d="M234.49,-1533.54C209.76,-1546.13 176.5,-1563.08 149.62,-1576.77"/>
<polygon fill="#aa0000" stroke="#aa0000" stroke-width="4" points="147.72,-1573.81 140.4,-1581.47 150.9,-1580.05 147.72,-1573.81"/>
</g>
<!-- worlds -->
<g id="node41" class="node">
<title>worlds</title>
<polygon fill="#446644" stroke="black" points="833.65,-738.64 768.65,-738.64 768.65,-702.64 833.65,-702.64 833.65,-738.64"/>
<text text-anchor="middle" x="801.15" y="-716.94" font-family="Times,serif" font-size="14.00" fill="#eeeeee">worlds</text>
</g>
<!-- physics&#45;&gt;worlds -->
<g id="edge40" class="edge">
<title>physics&#45;&gt;worlds</title>
<path fill="none" stroke="#00aa00" stroke-width="4" d="M815.21,-833.27C812.48,-811.4 807.87,-774.45 804.67,-748.87"/>
<polygon fill="#00aa00" stroke="#00aa00" stroke-width="4" points="808.11,-748.17 803.4,-738.68 801.17,-749.03 808.11,-748.17"/>
</g>
<!-- shapes -->
<g id="node42" class="node">
<title>shapes</title>
<polygon fill="#446644" stroke="black" points="921.51,-779.46 855.51,-779.46 855.51,-743.46 921.51,-743.46 921.51,-779.46"/>
<text text-anchor="middle" x="888.51" y="-757.76" font-family="Times,serif" font-size="14.00" fill="#eeeeee">shapes</text>
</g>
<!-- physics&#45;&gt;shapes -->
<g id="edge41" class="edge">
<title>physics&#45;&gt;shapes</title>
<path fill="none" stroke="#00aa00" stroke-width="4" d="M831.86,-833.25C842.16,-820.2 856.19,-802.42 867.71,-787.82"/>
<polygon fill="#00aa00" stroke="#00aa00" stroke-width="4" points="870.71,-789.67 874.16,-779.65 865.22,-785.33 870.71,-789.67"/>
</g>
<!-- bodies -->
<g id="node43" class="node">
<title>bodies</title>
<polygon fill="#446644" stroke="black" points="1013.27,-825.28 950.27,-825.28 950.27,-789.28 1013.27,-789.28 1013.27,-825.28"/>
<text text-anchor="middle" x="981.77" y="-803.58" font-family="Times,serif" font-size="14.00" fill="#eeeeee">bodies</text>
</g>
<!-- physics&#45;&gt;bodies -->
<g id="edge42" class="edge">
<title>physics&#45;&gt;bodies</title>
<path fill="none" stroke="#00aa00" stroke-width="4" d="M852.73,-841.98C878.39,-835.08 913.24,-825.71 940.26,-818.44"/>
<polygon fill="#00aa00" stroke="#00aa00" stroke-width="4" points="941.44,-821.75 950.19,-815.77 939.63,-814.99 941.44,-821.75"/>
</g>
<!-- vehicles -->
<g id="node46" class="node">
<title>vehicles</title>
<polygon fill="#446644" stroke="black" points="972.81,-733.37 898.81,-733.37 898.81,-697.37 972.81,-697.37 972.81,-733.37"/>
<text text-anchor="middle" x="935.81" y="-711.67" font-family="Times,serif" font-size="14.00" fill="#eeeeee">vehicles</text>
</g>
<!-- physics&#45;&gt;vehicles -->
<g id="edge45" class="edge">
<title>physics&#45;&gt;vehicles</title>
<path fill="none" stroke="#00aa00" stroke-width="4" d="M833.2,-833.39C853.71,-809.8 889.74,-768.35 913.19,-741.38"/>
<polygon fill="#00aa00" stroke="#00aa00" stroke-width="4" points="916.11,-743.36 920.03,-733.52 910.83,-738.77 916.11,-743.36"/>
</g>
<!-- queries -->
<g id="node49" class="node">
<title>queries</title>
<polygon fill="#446644" stroke="black" points="1035.33,-935.42 965.33,-935.42 965.33,-899.42 1035.33,-899.42 1035.33,-935.42"/>
<text text-anchor="middle" x="1000.33" y="-913.72" font-family="Times,serif" font-size="14.00" fill="#eeeeee">queries</text>
</g>
<!-- physics&#45;&gt;queries -->
<g id="edge48" class="edge">
<title>physics&#45;&gt;queries</title>
<path fill="none" stroke="#00aa00" stroke-width="4" d="M852.74,-864.18C882.08,-874.76 924.03,-889.9 955.7,-901.33"/>
<polygon fill="#00aa00" stroke="#00aa00" stroke-width="4" points="954.59,-904.64 965.18,-904.75 956.96,-898.06 954.59,-904.64"/>
</g>
<!-- constraints -->
<g id="node53" class="node">
<title>constraints</title>
<polygon fill="#446644" stroke="black" points="963.6,-1025.07 866.6,-1025.07 866.6,-989.07 963.6,-989.07 963.6,-1025.07"/>
<text text-anchor="middle" x="915.1" y="-1003.37" font-family="Times,serif" font-size="14.00" fill="#eeeeee">constraints</text>
</g>
<!-- physics&#45;&gt;constraints -->
<g id="edge52" class="edge">
<title>physics&#45;&gt;constraints</title>
<path fill="none" stroke="#00aa00" stroke-width="4" d="M828.88,-869.62C846,-896.91 878.47,-948.67 898.31,-980.3"/>
<polygon fill="#00aa00" stroke="#00aa00" stroke-width="4" points="895.51,-982.42 903.79,-989.03 901.44,-978.7 895.51,-982.42"/>
</g>
<!-- body_instances -->
<g id="node44" class="node">
<title>body_instances</title>
<polygon fill="#446644" stroke="black" points="1198.05,-809.66 1114.05,-809.66 1114.05,-771.66 1198.05,-771.66 1198.05,-809.66"/>
<text text-anchor="middle" x="1156.05" y="-794.46" font-family="Times,serif" font-size="14.00" fill="#eeeeee">body</text>
<text text-anchor="middle" x="1156.05" y="-779.46" font-family="Times,serif" font-size="14.00" fill="#eeeeee">instances</text>
</g>
<!-- bodies&#45;&gt;body_instances -->
<g id="edge43" class="edge">
<title>bodies&#45;&gt;body_instances</title>
<path fill="none" stroke="#00aa00" stroke-width="4" d="M1013.33,-804.27C1038.51,-801.87 1074.32,-798.45 1103.77,-795.64"/>
<polygon fill="#00aa00" stroke="#00aa00" stroke-width="4" points="1104.28,-799.11 1113.9,-794.68 1103.61,-792.14 1104.28,-799.11"/>
</g>
<!-- body_manager -->
<g id="node45" class="node">
<title>body_manager</title>
<polygon fill="#446644" stroke="black" points="1174.05,-747.35 1094.05,-747.35 1094.05,-709.35 1174.05,-709.35 1174.05,-747.35"/>
<text text-anchor="middle" x="1134.05" y="-732.15" font-family="Times,serif" font-size="14.00" fill="#eeeeee">body</text>
<text text-anchor="middle" x="1134.05" y="-717.15" font-family="Times,serif" font-size="14.00" fill="#eeeeee">manager</text>
</g>
<!-- bodies&#45;&gt;body_manager -->
<g id="edge44" class="edge">
<title>bodies&#45;&gt;body_manager</title>
<path fill="none" stroke="#00aa00" stroke-width="4" d="M1013.32,-790.93C1034.95,-779.71 1063.99,-764.66 1088.17,-752.13"/>
<polygon fill="#00aa00" stroke="#00aa00" stroke-width="4" points="1089.91,-755.17 1097.18,-747.46 1086.69,-748.96 1089.91,-755.17"/>
</g>
<!-- vehcl_instances -->
<g id="node47" class="node">
<title>vehcl_instances</title>
<polygon fill="#446644" stroke="black" points="1127.94,-635.97 1043.94,-635.97 1043.94,-597.97 1127.94,-597.97 1127.94,-635.97"/>
<text text-anchor="middle" x="1085.94" y="-620.77" font-family="Times,serif" font-size="14.00" fill="#eeeeee">vehicle</text>
<text text-anchor="middle" x="1085.94" y="-605.77" font-family="Times,serif" font-size="14.00" fill="#eeeeee">instances</text>
</g>
<!-- vehicles&#45;&gt;vehcl_instances -->
<g id="edge46" class="edge">
<title>vehicles&#45;&gt;vehcl_instances</title>
<path fill="none" stroke="#00aa00" stroke-width="4" d="M963.34,-697.32C987.15,-681.72 1021.79,-659.02 1048.18,-641.72"/>
<polygon fill="#00aa00" stroke="#00aa00" stroke-width="4" points="1050.34,-644.49 1056.78,-636.08 1046.5,-638.63 1050.34,-644.49"/>
</g>
<!-- vehcl_manager -->
<g id="node48" class="node">
<title>vehcl_manager</title>
<polygon fill="#446644" stroke="black" points="1070.09,-588.27 990.09,-588.27 990.09,-550.27 1070.09,-550.27 1070.09,-588.27"/>
<text text-anchor="middle" x="1030.09" y="-573.07" font-family="Times,serif" font-size="14.00" fill="#eeeeee">vehicle</text>
<text text-anchor="middle" x="1030.09" y="-558.07" font-family="Times,serif" font-size="14.00" fill="#eeeeee">manager</text>
</g>
<!-- vehicles&#45;&gt;vehcl_manager -->
<g id="edge47" class="edge">
<title>vehicles&#45;&gt;vehcl_manager</title>
<path fill="none" stroke="#00aa00" stroke-width="4" d="M947.56,-697.16C963.75,-672.07 993.08,-626.62 1012.06,-597.21"/>
<polygon fill="#00aa00" stroke="#00aa00" stroke-width="4" points="1015.11,-598.94 1017.59,-588.64 1009.23,-595.14 1015.11,-598.94"/>
</g>
<!-- ray_cast -->
<g id="node50" class="node">
<title>ray_cast</title>
<polygon fill="#446644" stroke="black" points="1187.19,-925.59 1133.19,-925.59 1133.19,-887.59 1187.19,-887.59 1187.19,-925.59"/>
<text text-anchor="middle" x="1160.19" y="-910.39" font-family="Times,serif" font-size="14.00" fill="#eeeeee">ray</text>
<text text-anchor="middle" x="1160.19" y="-895.39" font-family="Times,serif" font-size="14.00" fill="#eeeeee">cast</text>
</g>
<!-- queries&#45;&gt;ray_cast -->
<g id="edge49" class="edge">
<title>queries&#45;&gt;ray_cast</title>
<path fill="none" stroke="#00aa00" stroke-width="4" d="M1035.41,-915.05C1061.37,-913.29 1096.67,-910.89 1123.1,-909.1"/>
<polygon fill="#00aa00" stroke="#00aa00" stroke-width="4" points="1123.37,-912.59 1133.11,-908.42 1122.9,-905.61 1123.37,-912.59"/>
</g>
<!-- convex_sweep -->
<g id="node51" class="node">
<title>convex_sweep</title>
<polygon fill="#446644" stroke="black" points="1198.26,-985.68 1132.26,-985.68 1132.26,-947.68 1198.26,-947.68 1198.26,-985.68"/>
<text text-anchor="middle" x="1165.26" y="-970.48" font-family="Times,serif" font-size="14.00" fill="#eeeeee">convex</text>
<text text-anchor="middle" x="1165.26" y="-955.48" font-family="Times,serif" font-size="14.00" fill="#eeeeee">sweep</text>
</g>
<!-- queries&#45;&gt;convex_sweep -->
<g id="edge50" class="edge">
<title>queries&#45;&gt;convex_sweep</title>
<path fill="none" stroke="#00aa00" stroke-width="4" d="M1035.71,-927.99C1061.06,-935.56 1095.33,-945.79 1122.26,-953.83"/>
<polygon fill="#00aa00" stroke="#00aa00" stroke-width="4" points="1121.6,-957.29 1132.18,-956.8 1123.6,-950.58 1121.6,-957.29"/>
</g>
<!-- convex_shape -->
<g id="node52" class="node">
<title>convex_shape</title>
<polygon fill="#446644" stroke="black" points="1164.91,-1038.02 1098.91,-1038.02 1098.91,-1000.02 1164.91,-1000.02 1164.91,-1038.02"/>
<text text-anchor="middle" x="1131.91" y="-1022.82" font-family="Times,serif" font-size="14.00" fill="#eeeeee">convex</text>
<text text-anchor="middle" x="1131.91" y="-1007.82" font-family="Times,serif" font-size="14.00" fill="#eeeeee">shape</text>
</g>
<!-- queries&#45;&gt;convex_shape -->
<g id="edge51" class="edge">
<title>queries&#45;&gt;convex_shape</title>
<path fill="none" stroke="#00aa00" stroke-width="4" d="M1023.85,-935.59C1044.88,-951.82 1075.9,-975.77 1099.31,-993.85"/>
<polygon fill="#00aa00" stroke="#00aa00" stroke-width="4" points="1097.2,-996.64 1107.25,-999.98 1101.47,-991.1 1097.2,-996.64"/>
</g>
<!-- hinge -->
<g id="node54" class="node">
<title>hinge</title>
<polygon fill="#446644" stroke="black" points="1001.98,-1179.04 945.98,-1179.04 945.98,-1143.04 1001.98,-1143.04 1001.98,-1179.04"/>
<text text-anchor="middle" x="973.98" y="-1157.34" font-family="Times,serif" font-size="14.00" fill="#eeeeee">hinge</text>
</g>
<!-- constraints&#45;&gt;hinge -->
<g id="edge53" class="edge">
<title>constraints&#45;&gt;hinge</title>
<path fill="none" stroke="#00aa00" stroke-width="4" d="M922.09,-1025.34C932.31,-1052.08 951.44,-1102.08 963.4,-1133.35"/>
<polygon fill="#00aa00" stroke="#00aa00" stroke-width="4" points="960.17,-1134.71 967.01,-1142.8 966.7,-1132.21 960.17,-1134.71"/>
</g>
<!-- sixdof -->
<g id="node55" class="node">
<title>sixdof</title>
<polygon fill="#446644" stroke="black" points="1076.08,-1128.35 1022.08,-1128.35 1022.08,-1092.35 1076.08,-1092.35 1076.08,-1128.35"/>
<text text-anchor="middle" x="1049.08" y="-1106.65" font-family="Times,serif" font-size="14.00" fill="#eeeeee">6dof</text>
</g>
<!-- constraints&#45;&gt;sixdof -->
<g id="edge54" class="edge">
<title>constraints&#45;&gt;sixdof</title>
<path fill="none" stroke="#00aa00" stroke-width="4" d="M938.75,-1025.3C960.66,-1042.19 993.4,-1067.43 1017.53,-1086.03"/>
<polygon fill="#00aa00" stroke="#00aa00" stroke-width="4" points="1015.62,-1088.97 1025.68,-1092.31 1019.89,-1083.43 1015.62,-1088.97"/>
</g>
<!-- audio_context -->
<g id="node57" class="node">
<title>audio_context</title>
<polygon fill="#444466" stroke="black" points="325.26,-753.16 255.26,-753.16 255.26,-715.16 325.26,-715.16 325.26,-753.16"/>
<text text-anchor="middle" x="290.26" y="-737.96" font-family="Times,serif" font-size="14.00" fill="#eeeeee">audio</text>
<text text-anchor="middle" x="290.26" y="-722.96" font-family="Times,serif" font-size="14.00" fill="#eeeeee">context</text>
</g>
<!-- audio&#45;&gt;audio_context -->
<g id="edge56" class="edge">
<title>audio&#45;&gt;audio_context</title>
<path fill="none" stroke="#0000aa" stroke-width="4" d="M374.9,-785.74C361.5,-777.57 345.23,-767.66 330.55,-758.71"/>
<polygon fill="#0000aa" stroke="#0000aa" stroke-width="4" points="332.01,-755.51 321.65,-753.29 328.37,-761.49 332.01,-755.51"/>
</g>
<!-- ogg_loader -->
<g id="node58" class="node">
<title>ogg_loader</title>
<polygon fill="#444466" stroke="black" points="304.92,-822.4 242.92,-822.4 242.92,-784.4 304.92,-784.4 304.92,-822.4"/>
<text text-anchor="middle" x="273.92" y="-807.2" font-family="Times,serif" font-size="14.00" fill="#eeeeee">ogg</text>
<text text-anchor="middle" x="273.92" y="-792.2" font-family="Times,serif" font-size="14.00" fill="#eeeeee">loader</text>
</g>
<!-- audio&#45;&gt;ogg_loader -->
<g id="edge57" class="edge">
<title>audio&#45;&gt;ogg_loader</title>
<path fill="none" stroke="#0000aa" stroke-width="4" d="M375.05,-803.02C357.57,-803.08 334.76,-803.17 315.22,-803.24"/>
<polygon fill="#0000aa" stroke="#0000aa" stroke-width="4" points="315.05,-799.74 305.06,-803.28 315.07,-806.74 315.05,-799.74"/>
</g>
</g>
</svg>
