<?xml version="1.0" encoding="UTF-8" standalone="no"?>
<!DOCTYPE svg PUBLIC "-//W3C//DTD SVG 1.1//EN"
 "http://www.w3.org/Graphics/SVG/1.1/DTD/svg11.dtd">
<!-- Generated by graphviz version 2.43.0 (0)
 -->
<!-- Title: %3 Pages: 1 -->
<svg width="1658pt" height="1173pt"
 viewBox="0.00 0.00 1658.00 1173.00" xmlns="http://www.w3.org/2000/svg" xmlns:xlink="http://www.w3.org/1999/xlink">
<g id="graph0" class="graph" transform="scale(1 1) rotate(0) translate(4 1169)">
<title>%3</title>
<!-- gero -->
<g id="node1" class="node">
<title>gero</title>
<ellipse fill="#666644" stroke="black" cx="752.75" cy="-602.83" rx="31.7" ry="18"/>
<text text-anchor="middle" x="752.75" y="-599.13" font-family="Times,serif" font-size="14.00" fill="#eeeeee">gero</text>
</g>
<!-- system -->
<g id="node2" class="node">
<title>system</title>
<polygon fill="#666666" stroke="black" points="626.64,-408.53 558.64,-408.53 558.64,-372.53 626.64,-372.53 626.64,-408.53"/>
<text text-anchor="middle" x="592.64" y="-386.83" font-family="Times,serif" font-size="14.00" fill="#eeeeee">system</text>
</g>
<!-- gero&#45;&gt;system -->
<g id="edge1" class="edge">
<title>gero&#45;&gt;system</title>
<path fill="none" stroke="#aaaaaa" stroke-width="4" d="M740.19,-586.17C712.48,-549.42 645.91,-461.16 612.49,-416.85"/>
<polygon fill="#aaaaaa" stroke="#aaaaaa" stroke-width="4" points="615.09,-414.48 606.27,-408.6 609.5,-418.69 615.09,-414.48"/>
</g>
<!-- graphics -->
<g id="node17" class="node">
<title>graphics</title>
<polygon fill="#664444" stroke="black" points="1044.79,-585.76 966.79,-585.76 966.79,-549.76 1044.79,-549.76 1044.79,-585.76"/>
<text text-anchor="middle" x="1005.79" y="-564.06" font-family="Times,serif" font-size="14.00" fill="#eeeeee">graphics</text>
</g>
<!-- gero&#45;&gt;graphics -->
<g id="edge16" class="edge">
<title>gero&#45;&gt;graphics</title>
<path fill="none" stroke="#aa0000" stroke-width="4" d="M783.78,-598.53C826.87,-592.56 905.29,-581.69 956.45,-574.6"/>
<polygon fill="#aa0000" stroke="#aa0000" stroke-width="4" points="957.2,-578.03 966.62,-573.19 956.24,-571.09 957.2,-578.03"/>
</g>
<!-- physics -->
<g id="node40" class="node">
<title>physics</title>
<polygon fill="#446644" stroke="black" points="685.23,-830.61 615.23,-830.61 615.23,-794.61 685.23,-794.61 685.23,-830.61"/>
<text text-anchor="middle" x="650.23" y="-808.91" font-family="Times,serif" font-size="14.00" fill="#eeeeee">physics</text>
</g>
<!-- gero&#45;&gt;physics -->
<g id="edge39" class="edge">
<title>gero&#45;&gt;physics</title>
<path fill="none" stroke="#00aa00" stroke-width="4" d="M744.19,-620.36C726.34,-656.88 685.03,-741.4 663.63,-785.19"/>
<polygon fill="#00aa00" stroke="#00aa00" stroke-width="4" points="660.38,-783.87 659.13,-794.39 666.67,-786.95 660.38,-783.87"/>
</g>
<!-- audio -->
<g id="node56" class="node">
<title>audio</title>
<polygon fill="#444466" stroke="black" points="623.41,-604.77 567.41,-604.77 567.41,-568.77 623.41,-568.77 623.41,-604.77"/>
<text text-anchor="middle" x="595.41" y="-583.07" font-family="Times,serif" font-size="14.00" fill="#eeeeee">audio</text>
</g>
<!-- gero&#45;&gt;audio -->
<g id="edge55" class="edge">
<title>gero&#45;&gt;audio</title>
<path fill="none" stroke="#0000aa" stroke-width="4" d="M721.29,-599.62C696.11,-597.05 660.7,-593.43 633.84,-590.69"/>
<polygon fill="#0000aa" stroke="#0000aa" stroke-width="4" points="633.95,-587.18 623.65,-589.65 633.24,-594.15 633.95,-587.18"/>
</g>
<!-- containers -->
<g id="node3" class="node">
<title>containers</title>
<polygon fill="#666666" stroke="black" points="423.2,-320.23 331.2,-320.23 331.2,-284.23 423.2,-284.23 423.2,-320.23"/>
<text text-anchor="middle" x="377.2" y="-298.53" font-family="Times,serif" font-size="14.00" fill="#eeeeee">containers</text>
</g>
<!-- system&#45;&gt;containers -->
<g id="edge2" class="edge">
<title>system&#45;&gt;containers</title>
<path fill="none" stroke="#aaaaaa" stroke-width="4" d="M558.5,-376.54C524.12,-362.44 470.58,-340.5 430.58,-324.11"/>
<polygon fill="#aaaaaa" stroke="#aaaaaa" stroke-width="4" points="431.82,-320.83 421.24,-320.28 429.17,-327.31 431.82,-320.83"/>
</g>
<!-- utils -->
<g id="node10" class="node">
<title>utils</title>
<polygon fill="#666666" stroke="black" points="608.62,-236.76 554.62,-236.76 554.62,-200.76 608.62,-200.76 608.62,-236.76"/>
<text text-anchor="middle" x="581.62" y="-215.06" font-family="Times,serif" font-size="14.00" fill="#eeeeee">utils</text>
</g>
<!-- system&#45;&gt;utils -->
<g id="edge9" class="edge">
<title>system&#45;&gt;utils</title>
<path fill="none" stroke="#aaaaaa" stroke-width="4" d="M591.48,-372.47C589.56,-342.57 585.71,-282.57 583.43,-247.02"/>
<polygon fill="#aaaaaa" stroke="#aaaaaa" stroke-width="4" points="586.91,-246.59 582.78,-236.83 579.93,-247.04 586.91,-246.59"/>
</g>
<!-- multi_threading -->
<g id="node15" class="node">
<title>multi_threading</title>
<polygon fill="#666666" stroke="black" points="544.95,-351.55 458.95,-351.55 458.95,-313.55 544.95,-313.55 544.95,-351.55"/>
<text text-anchor="middle" x="501.95" y="-336.35" font-family="Times,serif" font-size="14.00" fill="#eeeeee">multi</text>
<text text-anchor="middle" x="501.95" y="-321.35" font-family="Times,serif" font-size="14.00" fill="#eeeeee">threading</text>
</g>
<!-- system&#45;&gt;multi_threading -->
<g id="edge14" class="edge">
<title>system&#45;&gt;multi_threading</title>
<path fill="none" stroke="#aaaaaa" stroke-width="4" d="M564.44,-372.5C556.81,-367.62 548.41,-362.25 540.31,-357.08"/>
<polygon fill="#aaaaaa" stroke="#aaaaaa" stroke-width="4" points="542.01,-354.01 531.7,-351.57 538.24,-359.91 542.01,-354.01"/>
</g>
<!-- logger -->
<g id="node16" class="node">
<title>logger</title>
<polygon fill="#666666" stroke="black" points="688.35,-310.09 626.35,-310.09 626.35,-274.09 688.35,-274.09 688.35,-310.09"/>
<text text-anchor="middle" x="657.35" y="-288.39" font-family="Times,serif" font-size="14.00" fill="#eeeeee">logger</text>
</g>
<!-- system&#45;&gt;logger -->
<g id="edge15" class="edge">
<title>system&#45;&gt;logger</title>
<path fill="none" stroke="#aaaaaa" stroke-width="4" d="M604.51,-372.47C614.39,-357.44 628.6,-335.82 639.8,-318.79"/>
<polygon fill="#aaaaaa" stroke="#aaaaaa" stroke-width="4" points="642.77,-320.64 645.34,-310.36 636.92,-316.79 642.77,-320.64"/>
</g>
<!-- dynamic -->
<g id="node4" class="node">
<title>dynamic</title>
<polygon fill="#666666" stroke="black" points="233.07,-295.36 156.07,-295.36 156.07,-259.36 233.07,-259.36 233.07,-295.36"/>
<text text-anchor="middle" x="194.57" y="-273.66" font-family="Times,serif" font-size="14.00" fill="#eeeeee">dynamic</text>
</g>
<!-- containers&#45;&gt;dynamic -->
<g id="edge3" class="edge">
<title>containers&#45;&gt;dynamic</title>
<path fill="none" stroke="#aaaaaa" stroke-width="4" d="M331.11,-295.95C304.32,-292.3 270.57,-287.71 243.33,-284"/>
<polygon fill="#aaaaaa" stroke="#aaaaaa" stroke-width="4" points="243.61,-280.5 233.23,-282.62 242.67,-287.44 243.61,-280.5"/>
</g>
<!-- static -->
<g id="node7" class="node">
<title>static</title>
<polygon fill="#666666" stroke="black" points="330.19,-173.54 274.19,-173.54 274.19,-137.54 330.19,-137.54 330.19,-173.54"/>
<text text-anchor="middle" x="302.19" y="-151.84" font-family="Times,serif" font-size="14.00" fill="#eeeeee">static</text>
</g>
<!-- containers&#45;&gt;static -->
<g id="edge6" class="edge">
<title>containers&#45;&gt;static</title>
<path fill="none" stroke="#aaaaaa" stroke-width="4" d="M367.85,-283.94C354.81,-258.44 331.06,-212.01 315.99,-182.52"/>
<polygon fill="#aaaaaa" stroke="#aaaaaa" stroke-width="4" points="319.09,-180.9 311.42,-173.59 312.86,-184.09 319.09,-180.9"/>
</g>
<!-- weak_ref -->
<g id="node9" class="node">
<title>weak_ref</title>
<polygon fill="#666666" stroke="black" points="288.27,-242.82 194.27,-242.82 194.27,-189.82 288.27,-189.82 288.27,-242.82"/>
<text text-anchor="middle" x="241.27" y="-227.62" font-family="Times,serif" font-size="14.00" fill="#eeeeee">weak ref</text>
<text text-anchor="middle" x="241.27" y="-212.62" font-family="Times,serif" font-size="14.00" fill="#eeeeee">heap array</text>
<text text-anchor="middle" x="241.27" y="-197.62" font-family="Times,serif" font-size="14.00" fill="#eeeeee">pool</text>
</g>
<!-- containers&#45;&gt;weak_ref -->
<g id="edge8" class="edge">
<title>containers&#45;&gt;weak_ref</title>
<path fill="none" stroke="#aaaaaa" stroke-width="4" d="M348.7,-284.22C332.3,-273.85 311.2,-260.52 292.05,-248.41"/>
<polygon fill="#aaaaaa" stroke="#aaaaaa" stroke-width="4" points="293.73,-245.34 283.41,-242.96 289.99,-251.26 293.73,-245.34"/>
</g>
<!-- linked_list -->
<g id="node5" class="node">
<title>linked_list</title>
<polygon fill="#666666" stroke="black" points="64.69,-302.32 -0.31,-302.32 -0.31,-249.32 64.69,-249.32 64.69,-302.32"/>
<text text-anchor="middle" x="32.19" y="-287.12" font-family="Times,serif" font-size="14.00" fill="#eeeeee">double</text>
<text text-anchor="middle" x="32.19" y="-272.12" font-family="Times,serif" font-size="14.00" fill="#eeeeee">linked</text>
<text text-anchor="middle" x="32.19" y="-257.12" font-family="Times,serif" font-size="14.00" fill="#eeeeee">list</text>
</g>
<!-- dynamic&#45;&gt;linked_list -->
<g id="edge4" class="edge">
<title>dynamic&#45;&gt;linked_list</title>
<path fill="none" stroke="#aaaaaa" stroke-width="4" d="M155.68,-276.99C131.38,-276.76 100.06,-276.46 75.05,-276.23"/>
<polygon fill="#aaaaaa" stroke="#aaaaaa" stroke-width="4" points="74.79,-272.72 64.75,-276.13 74.72,-279.72 74.79,-272.72"/>
</g>
<!-- heap_array -->
<g id="node6" class="node">
<title>heap_array</title>
<polygon fill="#666666" stroke="black" points="94.33,-206.85 0.33,-206.85 0.33,-170.85 94.33,-170.85 94.33,-206.85"/>
<text text-anchor="middle" x="47.33" y="-185.15" font-family="Times,serif" font-size="14.00" fill="#eeeeee">heap array</text>
</g>
<!-- dynamic&#45;&gt;heap_array -->
<g id="edge5" class="edge">
<title>dynamic&#45;&gt;heap_array</title>
<path fill="none" stroke="#aaaaaa" stroke-width="4" d="M164.42,-259.23C141.79,-245.63 110.62,-226.89 86.13,-212.17"/>
<polygon fill="#aaaaaa" stroke="#aaaaaa" stroke-width="4" points="87.81,-209.1 77.44,-206.95 84.21,-215.1 87.81,-209.1"/>
</g>
<!-- heap_grid_array -->
<g id="node8" class="node">
<title>heap_grid_array</title>
<polygon fill="#666666" stroke="black" points="255.1,-36.38 127.1,-36.38 127.1,-0.38 255.1,-0.38 255.1,-36.38"/>
<text text-anchor="middle" x="191.1" y="-14.68" font-family="Times,serif" font-size="14.00" fill="#eeeeee">heap grid array</text>
</g>
<!-- static&#45;&gt;heap_grid_array -->
<g id="edge7" class="edge">
<title>static&#45;&gt;heap_grid_array</title>
<path fill="none" stroke="#aaaaaa" stroke-width="4" d="M287.44,-137.33C268.18,-113.55 234.35,-71.78 212.34,-44.6"/>
<polygon fill="#aaaaaa" stroke="#aaaaaa" stroke-width="4" points="214.93,-42.24 205.91,-36.67 209.49,-46.65 214.93,-42.24"/>
</g>
<!-- math -->
<g id="node11" class="node">
<title>math</title>
<polygon fill="#666666" stroke="black" points="607.87,-76.74 553.87,-76.74 553.87,-40.74 607.87,-40.74 607.87,-76.74"/>
<text text-anchor="middle" x="580.87" y="-55.04" font-family="Times,serif" font-size="14.00" fill="#eeeeee">math</text>
</g>
<!-- utils&#45;&gt;math -->
<g id="edge10" class="edge">
<title>utils&#45;&gt;math</title>
<path fill="none" stroke="#aaaaaa" stroke-width="4" d="M581.53,-200.71C581.41,-173.1 581.16,-120.12 581,-87.27"/>
<polygon fill="#aaaaaa" stroke="#aaaaaa" stroke-width="4" points="584.5,-86.95 580.96,-76.96 577.5,-86.98 584.5,-86.95"/>
</g>
<!-- string -->
<g id="node12" class="node">
<title>string</title>
<polygon fill="#666666" stroke="black" points="685.74,-110.71 626.74,-110.71 626.74,-74.71 685.74,-74.71 685.74,-110.71"/>
<text text-anchor="middle" x="656.24" y="-89.01" font-family="Times,serif" font-size="14.00" fill="#eeeeee">string</text>
</g>
<!-- utils&#45;&gt;string -->
<g id="edge11" class="edge">
<title>utils&#45;&gt;string</title>
<path fill="none" stroke="#aaaaaa" stroke-width="4" d="M592.31,-200.7C604.89,-179.45 625.89,-143.98 640.37,-119.52"/>
<polygon fill="#aaaaaa" stroke="#aaaaaa" stroke-width="4" points="643.48,-121.12 645.57,-110.73 637.46,-117.56 643.48,-121.12"/>
</g>
<!-- file -->
<g id="node13" class="node">
<title>file</title>
<polygon fill="#666666" stroke="black" points="518.24,-125.79 464.24,-125.79 464.24,-89.79 518.24,-89.79 518.24,-125.79"/>
<text text-anchor="middle" x="491.24" y="-104.09" font-family="Times,serif" font-size="14.00" fill="#eeeeee">file</text>
</g>
<!-- utils&#45;&gt;file -->
<g id="edge12" class="edge">
<title>utils&#45;&gt;file</title>
<path fill="none" stroke="#aaaaaa" stroke-width="4" d="M566.7,-200.43C551.98,-182.36 529.33,-154.56 512.69,-134.13"/>
<polygon fill="#aaaaaa" stroke="#aaaaaa" stroke-width="4" points="515.22,-131.69 506.19,-126.14 509.79,-136.11 515.22,-131.69"/>
</g>
<!-- parser -->
<g id="node14" class="node">
<title>parser</title>
<polygon fill="#666666" stroke="black" points="597.58,-146.13 534.58,-146.13 534.58,-110.13 597.58,-110.13 597.58,-146.13"/>
<text text-anchor="middle" x="566.08" y="-124.43" font-family="Times,serif" font-size="14.00" fill="#eeeeee">parser</text>
</g>
<!-- utils&#45;&gt;parser -->
<g id="edge13" class="edge">
<title>utils&#45;&gt;parser</title>
<path fill="none" stroke="#aaaaaa" stroke-width="4" d="M578.47,-200.42C576.29,-187.68 573.34,-170.48 570.86,-156.05"/>
<polygon fill="#aaaaaa" stroke="#aaaaaa" stroke-width="4" points="574.3,-155.4 569.16,-146.13 567.4,-156.58 574.3,-155.4"/>
</g>
<!-- camera -->
<g id="node18" class="node">
<title>camera</title>
<polygon fill="#664444" stroke="black" points="959.65,-469.18 890.65,-469.18 890.65,-433.18 959.65,-433.18 959.65,-469.18"/>
<text text-anchor="middle" x="925.15" y="-447.48" font-family="Times,serif" font-size="14.00" fill="#eeeeee">camera</text>
</g>
<!-- graphics&#45;&gt;camera -->
<g id="edge17" class="edge">
<title>graphics&#45;&gt;camera</title>
<path fill="none" stroke="#aa0000" stroke-width="4" d="M993.19,-549.54C979.82,-530.21 958.56,-499.47 943.36,-477.5"/>
<polygon fill="#aa0000" stroke="#aa0000" stroke-width="4" points="946.23,-475.5 937.66,-469.26 940.47,-479.48 946.23,-475.5"/>
</g>
<!-- sdl2 -->
<g id="node19" class="node">
<title>sdl2</title>
<polygon fill="#664444" stroke="black" points="1109.7,-480.09 1055.7,-480.09 1055.7,-444.09 1109.7,-444.09 1109.7,-480.09"/>
<text text-anchor="middle" x="1082.7" y="-458.39" font-family="Times,serif" font-size="14.00" fill="#eeeeee">sdl2</text>
</g>
<!-- graphics&#45;&gt;sdl2 -->
<g id="edge18" class="edge">
<title>graphics&#45;&gt;sdl2</title>
<path fill="none" stroke="#aa0000" stroke-width="4" d="M1019.19,-549.35C1031.43,-532.53 1049.67,-507.47 1063.47,-488.52"/>
<polygon fill="#aa0000" stroke="#aa0000" stroke-width="4" points="1066.41,-490.43 1069.46,-480.29 1060.75,-486.31 1066.41,-490.43"/>
</g>
<!-- obj_loader -->
<g id="node20" class="node">
<title>obj_loader</title>
<polygon fill="#664444" stroke="black" points="1064.91,-707.78 1002.91,-707.78 1002.91,-669.78 1064.91,-669.78 1064.91,-707.78"/>
<text text-anchor="middle" x="1033.91" y="-692.58" font-family="Times,serif" font-size="14.00" fill="#eeeeee">obj</text>
<text text-anchor="middle" x="1033.91" y="-677.58" font-family="Times,serif" font-size="14.00" fill="#eeeeee">loader</text>
</g>
<!-- graphics&#45;&gt;obj_loader -->
<g id="edge19" class="edge">
<title>graphics&#45;&gt;obj_loader</title>
<path fill="none" stroke="#aa0000" stroke-width="4" d="M1010,-585.88C1014.55,-605.43 1021.85,-636.86 1027.18,-659.84"/>
<polygon fill="#aa0000" stroke="#aa0000" stroke-width="4" points="1023.81,-660.79 1029.48,-669.74 1030.63,-659.2 1023.81,-660.79"/>
</g>
<!-- prim_geo_bldr -->
<g id="node21" class="node">
<title>prim_geo_bldr</title>
<polygon fill="#664444" stroke="black" points="1093.31,-414.23 996.31,-414.23 996.31,-361.23 1093.31,-361.23 1093.31,-414.23"/>
<text text-anchor="middle" x="1044.81" y="-399.03" font-family="Times,serif" font-size="14.00" fill="#eeeeee">primitive</text>
<text text-anchor="middle" x="1044.81" y="-384.03" font-family="Times,serif" font-size="14.00" fill="#eeeeee">geometries</text>
<text text-anchor="middle" x="1044.81" y="-369.03" font-family="Times,serif" font-size="14.00" fill="#eeeeee">builder</text>
</g>
<!-- graphics&#45;&gt;prim_geo_bldr -->
<g id="edge20" class="edge">
<title>graphics&#45;&gt;prim_geo_bldr</title>
<path fill="none" stroke="#aa0000" stroke-width="4" d="M1009.75,-549.51C1016.07,-520.34 1028.58,-462.63 1036.82,-424.62"/>
<polygon fill="#aa0000" stroke="#aa0000" stroke-width="4" points="1040.32,-424.97 1039.02,-414.46 1033.48,-423.49 1040.32,-424.97"/>
</g>
<!-- openGL_es3 -->
<g id="node22" class="node">
<title>openGL_es3</title>
<polygon fill="#664444" stroke="black" points="1299.58,-572.18 1225.58,-572.18 1225.58,-534.18 1299.58,-534.18 1299.58,-572.18"/>
<text text-anchor="middle" x="1262.58" y="-556.98" font-family="Times,serif" font-size="14.00" fill="#eeeeee">OpenGL</text>
<text text-anchor="middle" x="1262.58" y="-541.98" font-family="Times,serif" font-size="14.00" fill="#eeeeee">ES3</text>
</g>
<!-- graphics&#45;&gt;openGL_es3 -->
<g id="edge21" class="edge">
<title>graphics&#45;&gt;openGL_es3</title>
<path fill="none" stroke="#aa0000" stroke-width="4" d="M1044.79,-565.54C1090.51,-562.95 1166.24,-558.65 1215.27,-555.86"/>
<polygon fill="#aa0000" stroke="#aa0000" stroke-width="4" points="1215.52,-559.35 1225.3,-555.29 1215.12,-552.37 1215.52,-559.35"/>
</g>
<!-- context -->
<g id="node23" class="node">
<title>context</title>
<polygon fill="#664444" stroke="black" points="1289.8,-421.05 1219.8,-421.05 1219.8,-385.05 1289.8,-385.05 1289.8,-421.05"/>
<text text-anchor="middle" x="1254.8" y="-399.35" font-family="Times,serif" font-size="14.00" fill="#eeeeee">context</text>
</g>
<!-- openGL_es3&#45;&gt;context -->
<g id="edge22" class="edge">
<title>openGL_es3&#45;&gt;context</title>
<path fill="none" stroke="#aa0000" stroke-width="4" d="M1261.59,-534.16C1260.25,-508.3 1257.85,-461.82 1256.29,-431.72"/>
<polygon fill="#aa0000" stroke="#aa0000" stroke-width="4" points="1259.77,-431.25 1255.75,-421.44 1252.78,-431.61 1259.77,-431.25"/>
</g>
<!-- image -->
<g id="node24" class="node">
<title>image</title>
<polygon fill="#664444" stroke="black" points="1394.29,-678.41 1334.29,-678.41 1334.29,-642.41 1394.29,-642.41 1394.29,-678.41"/>
<text text-anchor="middle" x="1364.29" y="-656.71" font-family="Times,serif" font-size="14.00" fill="#eeeeee">image</text>
</g>
<!-- openGL_es3&#45;&gt;image -->
<g id="edge23" class="edge">
<title>openGL_es3&#45;&gt;image</title>
<path fill="none" stroke="#aa0000" stroke-width="4" d="M1280.76,-572.35C1297.24,-589.71 1321.64,-615.44 1339.82,-634.61"/>
<polygon fill="#aa0000" stroke="#aa0000" stroke-width="4" points="1337.52,-637.27 1346.94,-642.12 1342.6,-632.46 1337.52,-637.27"/>
</g>
<!-- textures -->
<g id="node25" class="node">
<title>textures</title>
<polygon fill="#664444" stroke="black" points="1502.78,-677.82 1425.78,-677.82 1425.78,-641.82 1502.78,-641.82 1502.78,-677.82"/>
<text text-anchor="middle" x="1464.28" y="-656.12" font-family="Times,serif" font-size="14.00" fill="#eeeeee">textures</text>
</g>
<!-- openGL_es3&#45;&gt;textures -->
<g id="edge24" class="edge">
<title>openGL_es3&#45;&gt;textures</title>
<path fill="none" stroke="#aa0000" stroke-width="4" d="M1298.64,-572.24C1333.01,-590.41 1384.78,-617.79 1421.28,-637.09"/>
<polygon fill="#aa0000" stroke="#aa0000" stroke-width="4" points="1419.74,-640.23 1430.21,-641.81 1423.01,-634.04 1419.74,-640.23"/>
</g>
<!-- shader -->
<g id="node29" class="node">
<title>shader</title>
<polygon fill="#664444" stroke="black" points="1493.93,-497.48 1428.93,-497.48 1428.93,-461.48 1493.93,-461.48 1493.93,-497.48"/>
<text text-anchor="middle" x="1461.43" y="-475.78" font-family="Times,serif" font-size="14.00" fill="#eeeeee">shader</text>
</g>
<!-- openGL_es3&#45;&gt;shader -->
<g id="edge28" class="edge">
<title>openGL_es3&#45;&gt;shader</title>
<path fill="none" stroke="#aa0000" stroke-width="4" d="M1299.98,-539.31C1333.92,-526.74 1383.9,-508.21 1419.25,-495.11"/>
<polygon fill="#aa0000" stroke="#aa0000" stroke-width="4" points="1420.65,-498.32 1428.81,-491.57 1418.21,-491.76 1420.65,-498.32"/>
</g>
<!-- geometry -->
<g id="node32" class="node">
<title>geometry</title>
<polygon fill="#664444" stroke="black" points="1426,-397.09 1341,-397.09 1341,-361.09 1426,-361.09 1426,-397.09"/>
<text text-anchor="middle" x="1383.5" y="-375.39" font-family="Times,serif" font-size="14.00" fill="#eeeeee">geometry</text>
</g>
<!-- openGL_es3&#45;&gt;geometry -->
<g id="edge31" class="edge">
<title>openGL_es3&#45;&gt;geometry</title>
<path fill="none" stroke="#aa0000" stroke-width="4" d="M1275.98,-533.88C1297.69,-502.62 1340.59,-440.87 1365.13,-405.54"/>
<polygon fill="#aa0000" stroke="#aa0000" stroke-width="4" points="1368.12,-407.37 1370.95,-397.16 1362.37,-403.38 1368.12,-407.37"/>
</g>
<!-- vbo -->
<g id="node35" class="node">
<title>vbo</title>
<polygon fill="#664444" stroke="black" points="1424.75,-620.68 1370.75,-620.68 1370.75,-584.68 1424.75,-584.68 1424.75,-620.68"/>
<text text-anchor="middle" x="1397.75" y="-598.98" font-family="Times,serif" font-size="14.00" fill="#eeeeee">vbo</text>
</g>
<!-- openGL_es3&#45;&gt;vbo -->
<g id="edge34" class="edge">
<title>openGL_es3&#45;&gt;vbo</title>
<path fill="none" stroke="#aa0000" stroke-width="4" d="M1299.87,-566.83C1318.91,-573.8 1341.98,-582.25 1360.94,-589.2"/>
<polygon fill="#aa0000" stroke="#aa0000" stroke-width="4" points="1359.85,-592.52 1370.44,-592.68 1362.25,-585.95 1359.85,-592.52"/>
</g>
<!-- vao -->
<g id="node36" class="node">
<title>vao</title>
<polygon fill="#664444" stroke="black" points="1378.36,-462.89 1324.36,-462.89 1324.36,-426.89 1378.36,-426.89 1378.36,-462.89"/>
<text text-anchor="middle" x="1351.36" y="-441.19" font-family="Times,serif" font-size="14.00" fill="#eeeeee">vao</text>
</g>
<!-- openGL_es3&#45;&gt;vao -->
<g id="edge35" class="edge">
<title>openGL_es3&#45;&gt;vao</title>
<path fill="none" stroke="#aa0000" stroke-width="4" d="M1278.25,-534.07C1292.62,-516.54 1314.04,-490.42 1329.98,-470.97"/>
<polygon fill="#aa0000" stroke="#aa0000" stroke-width="4" points="1332.81,-473.04 1336.44,-463.09 1327.39,-468.6 1332.81,-473.04"/>
</g>
<!-- frame_buffer -->
<g id="node37" class="node">
<title>frame_buffer</title>
<polygon fill="#664444" stroke="black" points="1235.19,-681.58 1175.19,-681.58 1175.19,-643.58 1235.19,-643.58 1235.19,-681.58"/>
<text text-anchor="middle" x="1205.19" y="-666.38" font-family="Times,serif" font-size="14.00" fill="#eeeeee">frame</text>
<text text-anchor="middle" x="1205.19" y="-651.38" font-family="Times,serif" font-size="14.00" fill="#eeeeee">buffer</text>
</g>
<!-- openGL_es3&#45;&gt;frame_buffer -->
<g id="edge36" class="edge">
<title>openGL_es3&#45;&gt;frame_buffer</title>
<path fill="none" stroke="#aa0000" stroke-width="4" d="M1252.58,-572.23C1243.59,-589.38 1230.24,-614.82 1220.01,-634.33"/>
<polygon fill="#aa0000" stroke="#aa0000" stroke-width="4" points="1216.81,-632.89 1215.26,-643.37 1223.01,-636.14 1216.81,-632.89"/>
</g>
<!-- render_buffer -->
<g id="node38" class="node">
<title>render_buffer</title>
<polygon fill="#664444" stroke="black" points="1322,-736.95 1257,-736.95 1257,-698.95 1322,-698.95 1322,-736.95"/>
<text text-anchor="middle" x="1289.5" y="-721.75" font-family="Times,serif" font-size="14.00" fill="#eeeeee">render</text>
<text text-anchor="middle" x="1289.5" y="-706.75" font-family="Times,serif" font-size="14.00" fill="#eeeeee">buffer</text>
</g>
<!-- openGL_es3&#45;&gt;render_buffer -->
<g id="edge37" class="edge">
<title>openGL_es3&#45;&gt;render_buffer</title>
<path fill="none" stroke="#aa0000" stroke-width="4" d="M1265.72,-572.4C1270.4,-601.05 1279.24,-655.17 1284.73,-688.73"/>
<polygon fill="#aa0000" stroke="#aa0000" stroke-width="4" points="1281.31,-689.54 1286.38,-698.85 1288.22,-688.41 1281.31,-689.54"/>
</g>
<!-- resc_mangr -->
<g id="node39" class="node">
<title>resc_mangr</title>
<polygon fill="#664444" stroke="black" points="1454.11,-557.19 1374.11,-557.19 1374.11,-519.19 1454.11,-519.19 1454.11,-557.19"/>
<text text-anchor="middle" x="1414.11" y="-541.99" font-family="Times,serif" font-size="14.00" fill="#eeeeee">resource</text>
<text text-anchor="middle" x="1414.11" y="-526.99" font-family="Times,serif" font-size="14.00" fill="#eeeeee">manager</text>
</g>
<!-- openGL_es3&#45;&gt;resc_mangr -->
<g id="edge38" class="edge">
<title>openGL_es3&#45;&gt;resc_mangr</title>
<path fill="none" stroke="#aa0000" stroke-width="4" d="M1299.65,-549.51C1319,-547.59 1342.95,-545.23 1363.94,-543.15"/>
<polygon fill="#aa0000" stroke="#aa0000" stroke-width="4" points="1364.36,-546.62 1373.97,-542.16 1363.68,-539.66 1364.36,-546.62"/>
</g>
<!-- color -->
<g id="node26" class="node">
<title>color</title>
<polygon fill="#664444" stroke="black" points="1567.46,-798.27 1513.46,-798.27 1513.46,-762.27 1567.46,-762.27 1567.46,-798.27"/>
<text text-anchor="middle" x="1540.46" y="-776.57" font-family="Times,serif" font-size="14.00" fill="#eeeeee">color</text>
</g>
<!-- textures&#45;&gt;color -->
<g id="edge25" class="edge">
<title>textures&#45;&gt;color</title>
<path fill="none" stroke="#aa0000" stroke-width="4" d="M1475.69,-677.85C1488.36,-697.9 1508.97,-730.48 1523.53,-753.5"/>
<polygon fill="#aa0000" stroke="#aa0000" stroke-width="4" points="1520.68,-755.53 1528.98,-762.11 1526.59,-751.79 1520.68,-755.53"/>
</g>
<!-- depth -->
<g id="node27" class="node">
<title>depth</title>
<polygon fill="#664444" stroke="black" points="1621.19,-747.8 1563.19,-747.8 1563.19,-711.8 1621.19,-711.8 1621.19,-747.8"/>
<text text-anchor="middle" x="1592.19" y="-726.1" font-family="Times,serif" font-size="14.00" fill="#eeeeee">depth</text>
</g>
<!-- textures&#45;&gt;depth -->
<g id="edge26" class="edge">
<title>textures&#45;&gt;depth</title>
<path fill="none" stroke="#aa0000" stroke-width="4" d="M1497.22,-677.84C1514.49,-687.29 1535.74,-698.92 1553.76,-708.78"/>
<polygon fill="#aa0000" stroke="#aa0000" stroke-width="4" points="1552.4,-712.02 1562.85,-713.75 1555.76,-705.88 1552.4,-712.02"/>
</g>
<!-- data -->
<g id="node28" class="node">
<title>data</title>
<polygon fill="#664444" stroke="black" points="1634.98,-680.29 1580.98,-680.29 1580.98,-644.29 1634.98,-644.29 1634.98,-680.29"/>
<text text-anchor="middle" x="1607.98" y="-658.59" font-family="Times,serif" font-size="14.00" fill="#eeeeee">data</text>
</g>
<!-- textures&#45;&gt;data -->
<g id="edge27" class="edge">
<title>textures&#45;&gt;data</title>
<path fill="none" stroke="#aa0000" stroke-width="4" d="M1502.79,-660.48C1523.84,-660.84 1549.8,-661.29 1570.66,-661.65"/>
<polygon fill="#aa0000" stroke="#aa0000" stroke-width="4" points="1570.69,-665.15 1580.75,-661.82 1570.81,-658.15 1570.69,-665.15"/>
</g>
<!-- program -->
<g id="node30" class="node">
<title>program</title>
<polygon fill="#664444" stroke="black" points="1649.52,-493.31 1571.52,-493.31 1571.52,-457.31 1649.52,-457.31 1649.52,-493.31"/>
<text text-anchor="middle" x="1610.52" y="-471.61" font-family="Times,serif" font-size="14.00" fill="#eeeeee">program</text>
</g>
<!-- shader&#45;&gt;program -->
<g id="edge29" class="edge">
<title>shader&#45;&gt;program</title>
<path fill="none" stroke="#aa0000" stroke-width="4" d="M1494.15,-478.56C1513.76,-478.01 1539.08,-477.3 1561.09,-476.69"/>
<polygon fill="#aa0000" stroke="#aa0000" stroke-width="4" points="1561.37,-480.18 1571.26,-476.4 1561.17,-473.19 1561.37,-480.18"/>
</g>
<!-- shader_builder -->
<g id="node31" class="node">
<title>shader_builder</title>
<polygon fill="#664444" stroke="black" points="1619.35,-424.61 1551.35,-424.61 1551.35,-386.61 1619.35,-386.61 1619.35,-424.61"/>
<text text-anchor="middle" x="1585.35" y="-409.41" font-family="Times,serif" font-size="14.00" fill="#eeeeee">shader</text>
<text text-anchor="middle" x="1585.35" y="-394.41" font-family="Times,serif" font-size="14.00" fill="#eeeeee">builder</text>
</g>
<!-- shader&#45;&gt;shader_builder -->
<g id="edge30" class="edge">
<title>shader&#45;&gt;shader_builder</title>
<path fill="none" stroke="#aa0000" stroke-width="4" d="M1491.74,-461.41C1507.61,-451.95 1527.26,-440.24 1544.45,-429.99"/>
<polygon fill="#aa0000" stroke="#aa0000" stroke-width="4" points="1546.39,-432.91 1553.18,-424.78 1542.8,-426.9 1546.39,-432.91"/>
</g>
<!-- instancing -->
<g id="node33" class="node">
<title>instancing</title>
<polygon fill="#664444" stroke="black" points="1565.88,-303.64 1474.88,-303.64 1474.88,-267.64 1565.88,-267.64 1565.88,-303.64"/>
<text text-anchor="middle" x="1520.38" y="-281.94" font-family="Times,serif" font-size="14.00" fill="#eeeeee">instancing</text>
</g>
<!-- geometry&#45;&gt;instancing -->
<g id="edge32" class="edge">
<title>geometry&#45;&gt;instancing</title>
<path fill="none" stroke="#aa0000" stroke-width="4" d="M1409.89,-361.07C1431.34,-346.43 1461.79,-325.64 1485.29,-309.6"/>
<polygon fill="#aa0000" stroke="#aa0000" stroke-width="4" points="1487.32,-312.45 1493.6,-303.92 1483.37,-306.67 1487.32,-312.45"/>
</g>
<!-- geo_builder -->
<g id="node34" class="node">
<title>geo_builder</title>
<polygon fill="#664444" stroke="black" points="1471.36,-244.39 1386.36,-244.39 1386.36,-206.39 1471.36,-206.39 1471.36,-244.39"/>
<text text-anchor="middle" x="1428.86" y="-229.19" font-family="Times,serif" font-size="14.00" fill="#eeeeee">geometry</text>
<text text-anchor="middle" x="1428.86" y="-214.19" font-family="Times,serif" font-size="14.00" fill="#eeeeee">builder</text>
</g>
<!-- geometry&#45;&gt;geo_builder -->
<g id="edge33" class="edge">
<title>geometry&#45;&gt;geo_builder</title>
<path fill="none" stroke="#aa0000" stroke-width="4" d="M1388.88,-360.86C1396.64,-334.57 1411.05,-285.74 1420.28,-254.45"/>
<polygon fill="#aa0000" stroke="#aa0000" stroke-width="4" points="1423.72,-255.15 1423.2,-244.56 1417.01,-253.16 1423.72,-255.15"/>
</g>
<!-- worlds -->
<g id="node41" class="node">
<title>worlds</title>
<polygon fill="#446644" stroke="black" points="555.4,-827.67 490.4,-827.67 490.4,-791.67 555.4,-791.67 555.4,-827.67"/>
<text text-anchor="middle" x="522.9" y="-805.97" font-family="Times,serif" font-size="14.00" fill="#eeeeee">worlds</text>
</g>
<!-- physics&#45;&gt;worlds -->
<g id="edge40" class="edge">
<title>physics&#45;&gt;worlds</title>
<path fill="none" stroke="#00aa00" stroke-width="4" d="M615.1,-811.8C599.88,-811.45 581.92,-811.03 565.92,-810.66"/>
<polygon fill="#00aa00" stroke="#00aa00" stroke-width="4" points="565.81,-807.16 555.73,-810.43 565.65,-814.16 565.81,-807.16"/>
</g>
<!-- shapes -->
<g id="node42" class="node">
<title>shapes</title>
<polygon fill="#446644" stroke="black" points="650.32,-953.75 584.32,-953.75 584.32,-917.75 650.32,-917.75 650.32,-953.75"/>
<text text-anchor="middle" x="617.32" y="-932.05" font-family="Times,serif" font-size="14.00" fill="#eeeeee">shapes</text>
</g>
<!-- physics&#45;&gt;shapes -->
<g id="edge41" class="edge">
<title>physics&#45;&gt;shapes</title>
<path fill="none" stroke="#00aa00" stroke-width="4" d="M645.37,-830.78C639.95,-851.06 631.11,-884.12 624.81,-907.72"/>
<polygon fill="#00aa00" stroke="#00aa00" stroke-width="4" points="621.39,-906.94 622.19,-917.51 628.16,-908.75 621.39,-906.94"/>
</g>
<!-- bodies -->
<g id="node43" class="node">
<title>bodies</title>
<polygon fill="#446644" stroke="black" points="694.01,-1026.38 631.01,-1026.38 631.01,-990.38 694.01,-990.38 694.01,-1026.38"/>
<text text-anchor="middle" x="662.51" y="-1004.68" font-family="Times,serif" font-size="14.00" fill="#eeeeee">bodies</text>
</g>
<!-- physics&#45;&gt;bodies -->
<g id="edge42" class="edge">
<title>physics&#45;&gt;bodies</title>
<path fill="none" stroke="#00aa00" stroke-width="4" d="M651.36,-830.68C653.51,-864.91 658.19,-939.45 660.75,-980.27"/>
<polygon fill="#00aa00" stroke="#00aa00" stroke-width="4" points="657.26,-980.59 661.38,-990.35 664.25,-980.15 657.26,-980.59"/>
</g>
<!-- vehicles -->
<g id="node46" class="node">
<title>vehicles</title>
<polygon fill="#446644" stroke="black" points="805.2,-979.29 731.2,-979.29 731.2,-943.29 805.2,-943.29 805.2,-979.29"/>
<text text-anchor="middle" x="768.2" y="-957.59" font-family="Times,serif" font-size="14.00" fill="#eeeeee">vehicles</text>
</g>
<!-- physics&#45;&gt;vehicles -->
<g id="edge45" class="edge">
<title>physics&#45;&gt;vehicles</title>
<path fill="none" stroke="#00aa00" stroke-width="4" d="M664.69,-830.84C685.39,-856.93 723.57,-905.04 747.33,-934.98"/>
<polygon fill="#00aa00" stroke="#00aa00" stroke-width="4" points="744.66,-937.25 753.62,-942.91 750.15,-932.9 744.66,-937.25"/>
</g>
<!-- queries -->
<g id="node49" class="node">
<title>queries</title>
<polygon fill="#446644" stroke="black" points="562.55,-1012.83 492.55,-1012.83 492.55,-976.83 562.55,-976.83 562.55,-1012.83"/>
<text text-anchor="middle" x="527.55" y="-991.13" font-family="Times,serif" font-size="14.00" fill="#eeeeee">queries</text>
</g>
<!-- physics&#45;&gt;queries -->
<g id="edge48" class="edge">
<title>physics&#45;&gt;queries</title>
<path fill="none" stroke="#00aa00" stroke-width="4" d="M638.02,-830.75C616.25,-863.09 570.65,-930.81 545.38,-968.35"/>
<polygon fill="#00aa00" stroke="#00aa00" stroke-width="4" points="542.39,-966.52 539.71,-976.77 548.2,-970.42 542.39,-966.52"/>
</g>
<!-- constraints -->
<g id="node53" class="node">
<title>constraints</title>
<polygon fill="#446644" stroke="black" points="495.66,-900.08 398.66,-900.08 398.66,-864.08 495.66,-864.08 495.66,-900.08"/>
<text text-anchor="middle" x="447.16" y="-878.38" font-family="Times,serif" font-size="14.00" fill="#eeeeee">constraints</text>
</g>
<!-- physics&#45;&gt;constraints -->
<g id="edge52" class="edge">
<title>physics&#45;&gt;constraints</title>
<path fill="none" stroke="#00aa00" stroke-width="4" d="M614.86,-824.71C584.74,-835.02 540.86,-850.03 505.54,-862.11"/>
<polygon fill="#00aa00" stroke="#00aa00" stroke-width="4" points="504.15,-858.88 495.82,-865.43 506.41,-865.51 504.15,-858.88"/>
</g>
<!-- body_instances -->
<g id="node44" class="node">
<title>body_instances</title>
<polygon fill="#446644" stroke="black" points="759.52,-1161.27 675.52,-1161.27 675.52,-1123.27 759.52,-1123.27 759.52,-1161.27"/>
<text text-anchor="middle" x="717.52" y="-1146.07" font-family="Times,serif" font-size="14.00" fill="#eeeeee">body</text>
<text text-anchor="middle" x="717.52" y="-1131.07" font-family="Times,serif" font-size="14.00" fill="#eeeeee">instances</text>
</g>
<!-- bodies&#45;&gt;body_instances -->
<g id="edge43" class="edge">
<title>bodies&#45;&gt;body_instances</title>
<path fill="none" stroke="#00aa00" stroke-width="4" d="M669.93,-1026.43C679.14,-1048.84 694.94,-1087.31 705.8,-1113.73"/>
<polygon fill="#00aa00" stroke="#00aa00" stroke-width="4" points="702.65,-1115.28 709.69,-1123.2 709.13,-1112.62 702.65,-1115.28"/>
</g>
<!-- body_manager -->
<g id="node45" class="node">
<title>body_manager</title>
<polygon fill="#446644" stroke="black" points="657.21,-1165.21 577.21,-1165.21 577.21,-1127.21 657.21,-1127.21 657.21,-1165.21"/>
<text text-anchor="middle" x="617.21" y="-1150.01" font-family="Times,serif" font-size="14.00" fill="#eeeeee">body</text>
<text text-anchor="middle" x="617.21" y="-1135.01" font-family="Times,serif" font-size="14.00" fill="#eeeeee">manager</text>
</g>
<!-- bodies&#45;&gt;body_manager -->
<g id="edge44" class="edge">
<title>bodies&#45;&gt;body_manager</title>
<path fill="none" stroke="#00aa00" stroke-width="4" d="M656.59,-1026.39C649.02,-1049.43 635.81,-1089.6 626.8,-1117.03"/>
<polygon fill="#00aa00" stroke="#00aa00" stroke-width="4" points="623.37,-1116.26 623.57,-1126.85 630.02,-1118.44 623.37,-1116.26"/>
</g>
<!-- vehcl_instances -->
<g id="node47" class="node">
<title>vehcl_instances</title>
<polygon fill="#446644" stroke="black" points="860.59,-1124.88 776.59,-1124.88 776.59,-1086.88 860.59,-1086.88 860.59,-1124.88"/>
<text text-anchor="middle" x="818.59" y="-1109.68" font-family="Times,serif" font-size="14.00" fill="#eeeeee">vehicle</text>
<text text-anchor="middle" x="818.59" y="-1094.68" font-family="Times,serif" font-size="14.00" fill="#eeeeee">instances</text>
</g>
<!-- vehicles&#45;&gt;vehcl_instances -->
<g id="edge46" class="edge">
<title>vehicles&#45;&gt;vehcl_instances</title>
<path fill="none" stroke="#00aa00" stroke-width="4" d="M774.48,-979.31C783.03,-1003.82 798.4,-1047.96 808.55,-1077.09"/>
<polygon fill="#00aa00" stroke="#00aa00" stroke-width="4" points="805.31,-1078.42 811.91,-1086.71 811.92,-1076.12 805.31,-1078.42"/>
</g>
<!-- vehcl_manager -->
<g id="node48" class="node">
<title>vehcl_manager</title>
<polygon fill="#446644" stroke="black" points="928.73,-1069.55 848.73,-1069.55 848.73,-1031.55 928.73,-1031.55 928.73,-1069.55"/>
<text text-anchor="middle" x="888.73" y="-1054.35" font-family="Times,serif" font-size="14.00" fill="#eeeeee">vehicle</text>
<text text-anchor="middle" x="888.73" y="-1039.35" font-family="Times,serif" font-size="14.00" fill="#eeeeee">manager</text>
</g>
<!-- vehicles&#45;&gt;vehcl_manager -->
<g id="edge47" class="edge">
<title>vehicles&#45;&gt;vehcl_manager</title>
<path fill="none" stroke="#00aa00" stroke-width="4" d="M792.59,-979.35C810.41,-992.55 834.8,-1010.61 854.55,-1025.24"/>
<polygon fill="#00aa00" stroke="#00aa00" stroke-width="4" points="852.59,-1028.14 862.7,-1031.28 856.75,-1022.51 852.59,-1028.14"/>
</g>
<!-- ray_cast -->
<g id="node50" class="node">
<title>ray_cast</title>
<polygon fill="#446644" stroke="black" points="541.43,-1148.65 487.43,-1148.65 487.43,-1110.65 541.43,-1110.65 541.43,-1148.65"/>
<text text-anchor="middle" x="514.43" y="-1133.45" font-family="Times,serif" font-size="14.00" fill="#eeeeee">ray</text>
<text text-anchor="middle" x="514.43" y="-1118.45" font-family="Times,serif" font-size="14.00" fill="#eeeeee">cast</text>
</g>
<!-- queries&#45;&gt;ray_cast -->
<g id="edge49" class="edge">
<title>queries&#45;&gt;ray_cast</title>
<path fill="none" stroke="#00aa00" stroke-width="4" d="M525.78,-1013.01C523.61,-1035.37 519.88,-1073.63 517.3,-1100.2"/>
<polygon fill="#00aa00" stroke="#00aa00" stroke-width="4" points="513.78,-1100.16 516.3,-1110.45 520.75,-1100.84 513.78,-1100.16"/>
</g>
<!-- convex_sweep -->
<g id="node51" class="node">
<title>convex_sweep</title>
<polygon fill="#446644" stroke="black" points="434.52,-1080.67 368.52,-1080.67 368.52,-1042.67 434.52,-1042.67 434.52,-1080.67"/>
<text text-anchor="middle" x="401.52" y="-1065.47" font-family="Times,serif" font-size="14.00" fill="#eeeeee">convex</text>
<text text-anchor="middle" x="401.52" y="-1050.47" font-family="Times,serif" font-size="14.00" fill="#eeeeee">sweep</text>
</g>
<!-- queries&#45;&gt;convex_sweep -->
<g id="edge50" class="edge">
<title>queries&#45;&gt;convex_sweep</title>
<path fill="none" stroke="#00aa00" stroke-width="4" d="M493.44,-1012.92C478.21,-1021 460.1,-1030.61 443.99,-1039.15"/>
<polygon fill="#00aa00" stroke="#00aa00" stroke-width="4" points="441.98,-1036.25 434.78,-1044.03 445.26,-1042.44 441.98,-1036.25"/>
</g>
<!-- convex_shape -->
<g id="node52" class="node">
<title>convex_shape</title>
<polygon fill="#446644" stroke="black" points="479.02,-1134.11 413.02,-1134.11 413.02,-1096.11 479.02,-1096.11 479.02,-1134.11"/>
<text text-anchor="middle" x="446.02" y="-1118.91" font-family="Times,serif" font-size="14.00" fill="#eeeeee">convex</text>
<text text-anchor="middle" x="446.02" y="-1103.91" font-family="Times,serif" font-size="14.00" fill="#eeeeee">shape</text>
</g>
<!-- queries&#45;&gt;convex_shape -->
<g id="edge51" class="edge">
<title>queries&#45;&gt;convex_shape</title>
<path fill="none" stroke="#00aa00" stroke-width="4" d="M515.34,-1012.84C501.95,-1032.59 480.29,-1064.54 464.75,-1087.48"/>
<polygon fill="#00aa00" stroke="#00aa00" stroke-width="4" points="461.83,-1085.54 459.12,-1095.78 467.62,-1089.47 461.83,-1085.54"/>
</g>
<!-- hinge -->
<g id="node54" class="node">
<title>hinge</title>
<polygon fill="#446644" stroke="black" points="325.85,-903.68 269.85,-903.68 269.85,-867.68 325.85,-867.68 325.85,-903.68"/>
<text text-anchor="middle" x="297.85" y="-881.98" font-family="Times,serif" font-size="14.00" fill="#eeeeee">hinge</text>
</g>
<!-- constraints&#45;&gt;hinge -->
<g id="edge53" class="edge">
<title>constraints&#45;&gt;hinge</title>
<path fill="none" stroke="#00aa00" stroke-width="4" d="M398.27,-883.26C378.04,-883.74 354.92,-884.3 335.97,-884.76"/>
<polygon fill="#00aa00" stroke="#00aa00" stroke-width="4" points="335.83,-881.26 325.92,-885 336,-888.26 335.83,-881.26"/>
</g>
<!-- sixdof -->
<g id="node55" class="node">
<title>sixdof</title>
<polygon fill="#446644" stroke="black" points="346.19,-977.32 292.19,-977.32 292.19,-941.32 346.19,-941.32 346.19,-977.32"/>
<text text-anchor="middle" x="319.19" y="-955.62" font-family="Times,serif" font-size="14.00" fill="#eeeeee">6dof</text>
</g>
<!-- constraints&#45;&gt;sixdof -->
<g id="edge54" class="edge">
<title>constraints&#45;&gt;sixdof</title>
<path fill="none" stroke="#00aa00" stroke-width="4" d="M417.16,-900.19C398.58,-911.4 374.61,-925.86 355.04,-937.68"/>
<polygon fill="#00aa00" stroke="#00aa00" stroke-width="4" points="353.14,-934.74 346.39,-942.9 356.76,-940.73 353.14,-934.74"/>
</g>
<!-- audio_context -->
<g id="node57" class="node">
<title>audio_context</title>
<polygon fill="#444466" stroke="black" points="510,-564.09 440,-564.09 440,-526.09 510,-526.09 510,-564.09"/>
<text text-anchor="middle" x="475" y="-548.89" font-family="Times,serif" font-size="14.00" fill="#eeeeee">audio</text>
<text text-anchor="middle" x="475" y="-533.89" font-family="Times,serif" font-size="14.00" fill="#eeeeee">context</text>
</g>
<!-- audio&#45;&gt;audio_context -->
<g id="edge56" class="edge">
<title>audio&#45;&gt;audio_context</title>
<path fill="none" stroke="#0000aa" stroke-width="4" d="M567.18,-577C553.13,-572.13 535.81,-566.14 520,-560.66"/>
<polygon fill="#0000aa" stroke="#0000aa" stroke-width="4" points="520.98,-557.3 510.38,-557.34 518.69,-563.92 520.98,-557.3"/>
</g>
<!-- ogg_loader -->
<g id="node58" class="node">
<title>ogg_loader</title>
<polygon fill="#444466" stroke="black" points="508.25,-642.58 446.25,-642.58 446.25,-604.58 508.25,-604.58 508.25,-642.58"/>
<text text-anchor="middle" x="477.25" y="-627.38" font-family="Times,serif" font-size="14.00" fill="#eeeeee">ogg</text>
<text text-anchor="middle" x="477.25" y="-612.38" font-family="Times,serif" font-size="14.00" fill="#eeeeee">loader</text>
</g>
<!-- audio&#45;&gt;ogg_loader -->
<g id="edge57" class="edge">
<title>audio&#45;&gt;ogg_loader</title>
<path fill="none" stroke="#0000aa" stroke-width="4" d="M567.41,-595.49C552.71,-600.07 534.43,-605.76 518.18,-610.83"/>
<polygon fill="#0000aa" stroke="#0000aa" stroke-width="4" points="516.88,-607.56 508.38,-613.88 518.97,-614.25 516.88,-607.56"/>
</g>
</g>
</svg>
