<?xml version="1.0" encoding="UTF-8" standalone="no"?>
<!DOCTYPE svg PUBLIC "-//W3C//DTD SVG 1.1//EN"
 "http://www.w3.org/Graphics/SVG/1.1/DTD/svg11.dtd">
<!-- Generated by graphviz version 2.43.0 (0)
 -->
<!-- Title: %3 Pages: 1 -->
<svg width="1723pt" height="1742pt"
 viewBox="0.00 0.00 1723.00 1742.00" xmlns="http://www.w3.org/2000/svg" xmlns:xlink="http://www.w3.org/1999/xlink">
<g id="graph0" class="graph" transform="scale(1 1) rotate(0) translate(4 1738)">
<title>%3</title>
<!-- gero -->
<g id="node1" class="node">
<title>gero</title>
<ellipse fill="#666644" stroke="black" cx="998.71" cy="-966.82" rx="31.7" ry="18"/>
<text text-anchor="middle" x="998.71" y="-963.12" font-family="Times,serif" font-size="14.00" fill="#eeeeee">gero</text>
</g>
<!-- system -->
<g id="node2" class="node">
<title>system</title>
<polygon fill="#666666" stroke="black" points="1048.18,-660.56 980.18,-660.56 980.18,-624.56 1048.18,-624.56 1048.18,-660.56"/>
<text text-anchor="middle" x="1014.18" y="-638.86" font-family="Times,serif" font-size="14.00" fill="#eeeeee">system</text>
</g>
<!-- gero&#45;&gt;system -->
<g id="edge1" class="edge">
<title>gero&#45;&gt;system</title>
<path fill="none" stroke="#aaaaaa" stroke-width="4" d="M999.59,-948.46C1002.16,-894.51 1009.71,-736.19 1012.82,-671.06"/>
<polygon fill="#aaaaaa" stroke="#aaaaaa" stroke-width="4" points="1016.33,-670.88 1013.31,-660.73 1009.34,-670.55 1016.33,-670.88"/>
</g>
<!-- graphics -->
<g id="node20" class="node">
<title>graphics</title>
<polygon fill="#664444" stroke="black" points="764.35,-1126.42 686.35,-1126.42 686.35,-1090.42 764.35,-1090.42 764.35,-1126.42"/>
<text text-anchor="middle" x="725.35" y="-1104.72" font-family="Times,serif" font-size="14.00" fill="#eeeeee">graphics</text>
</g>
<!-- gero&#45;&gt;graphics -->
<g id="edge19" class="edge">
<title>gero&#45;&gt;graphics</title>
<path fill="none" stroke="#aa0000" stroke-width="4" d="M974.93,-979.14C929.06,-1002.9 827.75,-1055.38 769.29,-1085.66"/>
<polygon fill="#aa0000" stroke="#aa0000" stroke-width="4" points="767.56,-1082.61 760.29,-1090.32 770.78,-1088.83 767.56,-1082.61"/>
</g>
<!-- physics -->
<g id="node43" class="node">
<title>physics</title>
<polygon fill="#446644" stroke="black" points="1330.03,-1102.12 1260.03,-1102.12 1260.03,-1066.12 1330.03,-1066.12 1330.03,-1102.12"/>
<text text-anchor="middle" x="1295.03" y="-1080.42" font-family="Times,serif" font-size="14.00" fill="#eeeeee">physics</text>
</g>
<!-- gero&#45;&gt;physics -->
<g id="edge42" class="edge">
<title>gero&#45;&gt;physics</title>
<path fill="none" stroke="#00aa00" stroke-width="4" d="M1025.01,-977.23C1075.7,-997.3 1187.44,-1041.53 1250.13,-1066.35"/>
<polygon fill="#00aa00" stroke="#00aa00" stroke-width="4" points="1249.16,-1069.73 1259.75,-1070.15 1251.74,-1063.22 1249.16,-1069.73"/>
</g>
<!-- audio -->
<g id="node59" class="node">
<title>audio</title>
<polygon fill="#444466" stroke="black" points="1059.49,-1127.85 1003.49,-1127.85 1003.49,-1091.85 1059.49,-1091.85 1059.49,-1127.85"/>
<text text-anchor="middle" x="1031.49" y="-1106.15" font-family="Times,serif" font-size="14.00" fill="#eeeeee">audio</text>
</g>
<!-- gero&#45;&gt;audio -->
<g id="edge58" class="edge">
<title>gero&#45;&gt;audio</title>
<path fill="none" stroke="#0000aa" stroke-width="4" d="M1002.86,-984.94C1008.45,-1009.31 1018.44,-1052.89 1025.02,-1081.59"/>
<polygon fill="#0000aa" stroke="#0000aa" stroke-width="4" points="1021.63,-1082.46 1027.27,-1091.43 1028.45,-1080.9 1021.63,-1082.46"/>
</g>
<!-- containers -->
<g id="node3" class="node">
<title>containers</title>
<polygon fill="#666666" stroke="black" points="924.91,-439.85 832.91,-439.85 832.91,-403.85 924.91,-403.85 924.91,-439.85"/>
<text text-anchor="middle" x="878.91" y="-418.15" font-family="Times,serif" font-size="14.00" fill="#eeeeee">containers</text>
</g>
<!-- system&#45;&gt;containers -->
<g id="edge2" class="edge">
<title>system&#45;&gt;containers</title>
<path fill="none" stroke="#aaaaaa" stroke-width="4" d="M1003.11,-624.5C979.32,-585.69 923.21,-494.15 895.29,-448.58"/>
<polygon fill="#aaaaaa" stroke="#aaaaaa" stroke-width="4" points="898.15,-446.55 889.94,-439.85 892.18,-450.21 898.15,-446.55"/>
</g>
<!-- utils -->
<g id="node10" class="node">
<title>utils</title>
<polygon fill="#666666" stroke="black" points="1124.4,-455.02 1070.4,-455.02 1070.4,-419.02 1124.4,-419.02 1124.4,-455.02"/>
<text text-anchor="middle" x="1097.4" y="-433.32" font-family="Times,serif" font-size="14.00" fill="#eeeeee">utils</text>
</g>
<!-- system&#45;&gt;utils -->
<g id="edge9" class="edge">
<title>system&#45;&gt;utils</title>
<path fill="none" stroke="#aaaaaa" stroke-width="4" d="M1021.56,-624.32C1036.18,-588.21 1068.89,-507.43 1086.19,-464.72"/>
<polygon fill="#aaaaaa" stroke="#aaaaaa" stroke-width="4" points="1089.52,-465.8 1090.03,-455.22 1083.04,-463.18 1089.52,-465.8"/>
</g>
<!-- multi_threading -->
<g id="node15" class="node">
<title>multi_threading</title>
<polygon fill="#666666" stroke="black" points="912.53,-619.94 826.53,-619.94 826.53,-581.94 912.53,-581.94 912.53,-619.94"/>
<text text-anchor="middle" x="869.53" y="-604.74" font-family="Times,serif" font-size="14.00" fill="#eeeeee">multi</text>
<text text-anchor="middle" x="869.53" y="-589.74" font-family="Times,serif" font-size="14.00" fill="#eeeeee">threading</text>
</g>
<!-- system&#45;&gt;multi_threading -->
<g id="edge14" class="edge">
<title>system&#45;&gt;multi_threading</title>
<path fill="none" stroke="#aaaaaa" stroke-width="4" d="M979.9,-632.7C962.75,-627.77 941.62,-621.68 922.45,-616.17"/>
<polygon fill="#aaaaaa" stroke="#aaaaaa" stroke-width="4" points="923.21,-612.74 912.63,-613.34 921.27,-619.47 923.21,-612.74"/>
</g>
<!-- logger -->
<g id="node16" class="node">
<title>logger</title>
<polygon fill="#666666" stroke="black" points="994.07,-547.89 932.07,-547.89 932.07,-511.89 994.07,-511.89 994.07,-547.89"/>
<text text-anchor="middle" x="963.07" y="-526.19" font-family="Times,serif" font-size="14.00" fill="#eeeeee">logger</text>
</g>
<!-- system&#45;&gt;logger -->
<g id="edge15" class="edge">
<title>system&#45;&gt;logger</title>
<path fill="none" stroke="#aaaaaa" stroke-width="4" d="M1005.96,-624.46C997.73,-606.31 984.95,-578.13 975.48,-557.25"/>
<polygon fill="#aaaaaa" stroke="#aaaaaa" stroke-width="4" points="978.58,-555.61 971.26,-547.95 972.2,-558.5 978.58,-555.61"/>
</g>
<!-- trees -->
<g id="node17" class="node">
<title>trees</title>
<polygon fill="#666666" stroke="black" points="1216.31,-572.03 1162.31,-572.03 1162.31,-536.03 1216.31,-536.03 1216.31,-572.03"/>
<text text-anchor="middle" x="1189.31" y="-550.33" font-family="Times,serif" font-size="14.00" fill="#eeeeee">trees</text>
</g>
<!-- system&#45;&gt;trees -->
<g id="edge16" class="edge">
<title>system&#45;&gt;trees</title>
<path fill="none" stroke="#aaaaaa" stroke-width="4" d="M1048.36,-625.28C1078.49,-610.05 1122.26,-587.93 1153.01,-572.38"/>
<polygon fill="#aaaaaa" stroke="#aaaaaa" stroke-width="4" points="1154.76,-575.42 1162.1,-567.79 1151.6,-569.17 1154.76,-575.42"/>
</g>
<!-- dynamic -->
<g id="node4" class="node">
<title>dynamic</title>
<polygon fill="#666666" stroke="black" points="727.53,-266.41 650.53,-266.41 650.53,-230.41 727.53,-230.41 727.53,-266.41"/>
<text text-anchor="middle" x="689.03" y="-244.71" font-family="Times,serif" font-size="14.00" fill="#eeeeee">dynamic</text>
</g>
<!-- containers&#45;&gt;dynamic -->
<g id="edge3" class="edge">
<title>containers&#45;&gt;dynamic</title>
<path fill="none" stroke="#aaaaaa" stroke-width="4" d="M858.94,-403.62C824.9,-372.52 755.53,-309.16 716.79,-273.77"/>
<polygon fill="#aaaaaa" stroke="#aaaaaa" stroke-width="4" points="718.75,-270.82 709.01,-266.66 714.03,-275.99 718.75,-270.82"/>
</g>
<!-- static -->
<g id="node7" class="node">
<title>static</title>
<polygon fill="#666666" stroke="black" points="900.68,-220.98 844.68,-220.98 844.68,-184.98 900.68,-184.98 900.68,-220.98"/>
<text text-anchor="middle" x="872.68" y="-199.28" font-family="Times,serif" font-size="14.00" fill="#eeeeee">static</text>
</g>
<!-- containers&#45;&gt;static -->
<g id="edge6" class="edge">
<title>containers&#45;&gt;static</title>
<path fill="none" stroke="#aaaaaa" stroke-width="4" d="M878.38,-403.56C877.3,-365.33 874.77,-276.7 873.48,-231.14"/>
<polygon fill="#aaaaaa" stroke="#aaaaaa" stroke-width="4" points="876.97,-230.96 873.19,-221.06 869.98,-231.16 876.97,-230.96"/>
</g>
<!-- weak_ref -->
<g id="node9" class="node">
<title>weak_ref</title>
<polygon fill="#666666" stroke="black" points="852.17,-297.54 758.17,-297.54 758.17,-244.54 852.17,-244.54 852.17,-297.54"/>
<text text-anchor="middle" x="805.17" y="-282.34" font-family="Times,serif" font-size="14.00" fill="#eeeeee">weak ref</text>
<text text-anchor="middle" x="805.17" y="-267.34" font-family="Times,serif" font-size="14.00" fill="#eeeeee">heap array</text>
<text text-anchor="middle" x="805.17" y="-252.34" font-family="Times,serif" font-size="14.00" fill="#eeeeee">pool</text>
</g>
<!-- containers&#45;&gt;weak_ref -->
<g id="edge8" class="edge">
<title>containers&#45;&gt;weak_ref</title>
<path fill="none" stroke="#aaaaaa" stroke-width="4" d="M870.01,-403.66C858.31,-379.73 837.5,-337.16 822.61,-306.71"/>
<polygon fill="#aaaaaa" stroke="#aaaaaa" stroke-width="4" points="825.73,-305.12 818.2,-297.68 819.44,-308.2 825.73,-305.12"/>
</g>
<!-- linked_list -->
<g id="node5" class="node">
<title>linked_list</title>
<polygon fill="#666666" stroke="black" points="673.84,-110.2 608.84,-110.2 608.84,-57.2 673.84,-57.2 673.84,-110.2"/>
<text text-anchor="middle" x="641.34" y="-95" font-family="Times,serif" font-size="14.00" fill="#eeeeee">double</text>
<text text-anchor="middle" x="641.34" y="-80" font-family="Times,serif" font-size="14.00" fill="#eeeeee">linked</text>
<text text-anchor="middle" x="641.34" y="-65" font-family="Times,serif" font-size="14.00" fill="#eeeeee">list</text>
</g>
<!-- dynamic&#45;&gt;linked_list -->
<g id="edge4" class="edge">
<title>dynamic&#45;&gt;linked_list</title>
<path fill="none" stroke="#aaaaaa" stroke-width="4" d="M683.74,-230.16C676.12,-203.82 661.86,-154.58 652,-120.52"/>
<polygon fill="#aaaaaa" stroke="#aaaaaa" stroke-width="4" points="655.23,-119.1 649.09,-110.47 648.51,-121.05 655.23,-119.1"/>
</g>
<!-- heap_array -->
<g id="node6" class="node">
<title>heap_array</title>
<polygon fill="#666666" stroke="black" points="601.3,-154.92 507.3,-154.92 507.3,-118.92 601.3,-118.92 601.3,-154.92"/>
<text text-anchor="middle" x="554.3" y="-133.22" font-family="Times,serif" font-size="14.00" fill="#eeeeee">heap array</text>
</g>
<!-- dynamic&#45;&gt;heap_array -->
<g id="edge5" class="edge">
<title>dynamic&#45;&gt;heap_array</title>
<path fill="none" stroke="#aaaaaa" stroke-width="4" d="M667.08,-230.25C644.48,-211.54 609.1,-182.27 584,-161.5"/>
<polygon fill="#aaaaaa" stroke="#aaaaaa" stroke-width="4" points="586.17,-158.76 576.24,-155.08 581.71,-164.15 586.17,-158.76"/>
</g>
<!-- heap_grid_array -->
<g id="node8" class="node">
<title>heap_grid_array</title>
<polygon fill="#666666" stroke="black" points="929.33,-35.84 801.33,-35.84 801.33,0.16 929.33,0.16 929.33,-35.84"/>
<text text-anchor="middle" x="865.33" y="-14.14" font-family="Times,serif" font-size="14.00" fill="#eeeeee">heap grid array</text>
</g>
<!-- static&#45;&gt;heap_grid_array -->
<g id="edge7" class="edge">
<title>static&#45;&gt;heap_grid_array</title>
<path fill="none" stroke="#aaaaaa" stroke-width="4" d="M871.96,-184.89C870.68,-152.54 867.98,-84.56 866.45,-46.03"/>
<polygon fill="#aaaaaa" stroke="#aaaaaa" stroke-width="4" points="869.94,-45.86 866.05,-36 862.95,-46.13 869.94,-45.86"/>
</g>
<!-- math -->
<g id="node11" class="node">
<title>math</title>
<polygon fill="#666666" stroke="black" points="1254.64,-355.58 1200.64,-355.58 1200.64,-319.58 1254.64,-319.58 1254.64,-355.58"/>
<text text-anchor="middle" x="1227.64" y="-333.88" font-family="Times,serif" font-size="14.00" fill="#eeeeee">math</text>
</g>
<!-- utils&#45;&gt;math -->
<g id="edge10" class="edge">
<title>utils&#45;&gt;math</title>
<path fill="none" stroke="#aaaaaa" stroke-width="4" d="M1120.99,-419.01C1141.88,-403.06 1172.56,-379.64 1195.66,-362"/>
<polygon fill="#aaaaaa" stroke="#aaaaaa" stroke-width="4" points="1197.97,-364.64 1203.79,-355.79 1193.72,-359.08 1197.97,-364.64"/>
</g>
<!-- string -->
<g id="node12" class="node">
<title>string</title>
<polygon fill="#666666" stroke="black" points="1226.75,-302.76 1167.75,-302.76 1167.75,-266.76 1226.75,-266.76 1226.75,-302.76"/>
<text text-anchor="middle" x="1197.25" y="-281.06" font-family="Times,serif" font-size="14.00" fill="#eeeeee">string</text>
</g>
<!-- utils&#45;&gt;string -->
<g id="edge11" class="edge">
<title>utils&#45;&gt;string</title>
<path fill="none" stroke="#aaaaaa" stroke-width="4" d="M1109.25,-418.96C1126.74,-392.28 1159.58,-342.2 1179.82,-311.34"/>
<polygon fill="#aaaaaa" stroke="#aaaaaa" stroke-width="4" points="1182.86,-313.08 1185.42,-302.8 1177.01,-309.24 1182.86,-313.08"/>
</g>
<!-- file -->
<g id="node13" class="node">
<title>file</title>
<polygon fill="#666666" stroke="black" points="1071.86,-324.13 1017.86,-324.13 1017.86,-288.13 1071.86,-288.13 1071.86,-324.13"/>
<text text-anchor="middle" x="1044.86" y="-302.43" font-family="Times,serif" font-size="14.00" fill="#eeeeee">file</text>
</g>
<!-- utils&#45;&gt;file -->
<g id="edge12" class="edge">
<title>utils&#45;&gt;file</title>
<path fill="none" stroke="#aaaaaa" stroke-width="4" d="M1090.1,-418.82C1081.24,-396.75 1066.21,-359.31 1055.92,-333.69"/>
<polygon fill="#aaaaaa" stroke="#aaaaaa" stroke-width="4" points="1059.08,-332.15 1052.1,-324.18 1052.58,-334.76 1059.08,-332.15"/>
</g>
<!-- parser -->
<g id="node14" class="node">
<title>parser</title>
<polygon fill="#666666" stroke="black" points="1149.17,-260.47 1086.17,-260.47 1086.17,-224.47 1149.17,-224.47 1149.17,-260.47"/>
<text text-anchor="middle" x="1117.67" y="-238.77" font-family="Times,serif" font-size="14.00" fill="#eeeeee">parser</text>
</g>
<!-- utils&#45;&gt;parser -->
<g id="edge13" class="edge">
<title>utils&#45;&gt;parser</title>
<path fill="none" stroke="#aaaaaa" stroke-width="4" d="M1099.31,-418.72C1102.86,-384.59 1110.53,-311.05 1114.74,-270.59"/>
<polygon fill="#aaaaaa" stroke="#aaaaaa" stroke-width="4" points="1118.23,-270.89 1115.78,-260.58 1111.27,-270.17 1118.23,-270.89"/>
</g>
<!-- kdtree -->
<g id="node18" class="node">
<title>kdtree</title>
<polygon fill="#666666" stroke="black" points="1333.44,-472.37 1265.44,-472.37 1265.44,-436.37 1333.44,-436.37 1333.44,-472.37"/>
<text text-anchor="middle" x="1299.44" y="-450.67" font-family="Times,serif" font-size="14.00" fill="#eeeeee">KdTree</text>
</g>
<!-- trees&#45;&gt;kdtree -->
<g id="edge17" class="edge">
<title>trees&#45;&gt;kdtree</title>
<path fill="none" stroke="#aaaaaa" stroke-width="4" d="M1209.25,-535.98C1226.69,-520.21 1252.18,-497.14 1271.62,-479.54"/>
<polygon fill="#aaaaaa" stroke="#aaaaaa" stroke-width="4" points="1274.21,-481.92 1279.27,-472.62 1269.51,-476.73 1274.21,-481.92"/>
</g>
<!-- bvhtree -->
<g id="node19" class="node">
<title>bvhtree</title>
<polygon fill="#666666" stroke="black" points="1348.06,-540.23 1294.06,-540.23 1294.06,-504.23 1348.06,-504.23 1348.06,-540.23"/>
<text text-anchor="middle" x="1321.06" y="-518.53" font-family="Times,serif" font-size="14.00" fill="#eeeeee">BVH</text>
</g>
<!-- trees&#45;&gt;bvhtree -->
<g id="edge18" class="edge">
<title>trees&#45;&gt;bvhtree</title>
<path fill="none" stroke="#aaaaaa" stroke-width="4" d="M1216.61,-547.44C1236.13,-542.73 1262.62,-536.33 1284.05,-531.16"/>
<polygon fill="#aaaaaa" stroke="#aaaaaa" stroke-width="4" points="1284.89,-534.56 1293.79,-528.81 1283.25,-527.75 1284.89,-534.56"/>
</g>
<!-- camera -->
<g id="node21" class="node">
<title>camera</title>
<polygon fill="#664444" stroke="black" points="608,-1115.25 539,-1115.25 539,-1079.25 608,-1079.25 608,-1115.25"/>
<text text-anchor="middle" x="573.5" y="-1093.55" font-family="Times,serif" font-size="14.00" fill="#eeeeee">camera</text>
</g>
<!-- graphics&#45;&gt;camera -->
<g id="edge20" class="edge">
<title>graphics&#45;&gt;camera</title>
<path fill="none" stroke="#aa0000" stroke-width="4" d="M686.24,-1105.54C665.48,-1104.01 639.86,-1102.13 618.29,-1100.54"/>
<polygon fill="#aa0000" stroke="#aa0000" stroke-width="4" points="618.3,-1097.04 608.07,-1099.79 617.79,-1104.02 618.3,-1097.04"/>
</g>
<!-- sdl2 -->
<g id="node22" class="node">
<title>sdl2</title>
<polygon fill="#664444" stroke="black" points="634.67,-1029.79 580.67,-1029.79 580.67,-993.79 634.67,-993.79 634.67,-1029.79"/>
<text text-anchor="middle" x="607.67" y="-1008.09" font-family="Times,serif" font-size="14.00" fill="#eeeeee">sdl2</text>
</g>
<!-- graphics&#45;&gt;sdl2 -->
<g id="edge21" class="edge">
<title>graphics&#45;&gt;sdl2</title>
<path fill="none" stroke="#aa0000" stroke-width="4" d="M703.21,-1090.24C684.64,-1074.99 657.94,-1053.07 637.49,-1036.27"/>
<polygon fill="#aa0000" stroke="#aa0000" stroke-width="4" points="639.65,-1033.52 629.7,-1029.88 635.21,-1038.93 639.65,-1033.52"/>
</g>
<!-- obj_loader -->
<g id="node23" class="node">
<title>obj_loader</title>
<polygon fill="#664444" stroke="black" points="717.27,-990.71 655.27,-990.71 655.27,-952.71 717.27,-952.71 717.27,-990.71"/>
<text text-anchor="middle" x="686.27" y="-975.51" font-family="Times,serif" font-size="14.00" fill="#eeeeee">obj</text>
<text text-anchor="middle" x="686.27" y="-960.51" font-family="Times,serif" font-size="14.00" fill="#eeeeee">loader</text>
</g>
<!-- graphics&#45;&gt;obj_loader -->
<g id="edge22" class="edge">
<title>graphics&#45;&gt;obj_loader</title>
<path fill="none" stroke="#aa0000" stroke-width="4" d="M720.16,-1090.26C713.6,-1067.34 702.25,-1027.62 694.5,-1000.52"/>
<polygon fill="#aa0000" stroke="#aa0000" stroke-width="4" points="697.84,-999.47 691.73,-990.82 691.11,-1001.4 697.84,-999.47"/>
</g>
<!-- prim_geo_bldr -->
<g id="node24" class="node">
<title>prim_geo_bldr</title>
<polygon fill="#664444" stroke="black" points="799.88,-1306.51 702.88,-1306.51 702.88,-1253.51 799.88,-1253.51 799.88,-1306.51"/>
<text text-anchor="middle" x="751.38" y="-1291.31" font-family="Times,serif" font-size="14.00" fill="#eeeeee">primitive</text>
<text text-anchor="middle" x="751.38" y="-1276.31" font-family="Times,serif" font-size="14.00" fill="#eeeeee">geometries</text>
<text text-anchor="middle" x="751.38" y="-1261.31" font-family="Times,serif" font-size="14.00" fill="#eeeeee">builder</text>
</g>
<!-- graphics&#45;&gt;prim_geo_bldr -->
<g id="edge23" class="edge">
<title>graphics&#45;&gt;prim_geo_bldr</title>
<path fill="none" stroke="#aa0000" stroke-width="4" d="M728.08,-1126.46C732.27,-1154.02 740.33,-1207.22 745.79,-1243.17"/>
<polygon fill="#aa0000" stroke="#aa0000" stroke-width="4" points="742.36,-1243.91 747.32,-1253.27 749.28,-1242.86 742.36,-1243.91"/>
</g>
<!-- openGL_es3 -->
<g id="node25" class="node">
<title>openGL_es3</title>
<polygon fill="#664444" stroke="black" points="472.72,-1319.7 398.72,-1319.7 398.72,-1281.7 472.72,-1281.7 472.72,-1319.7"/>
<text text-anchor="middle" x="435.72" y="-1304.5" font-family="Times,serif" font-size="14.00" fill="#eeeeee">OpenGL</text>
<text text-anchor="middle" x="435.72" y="-1289.5" font-family="Times,serif" font-size="14.00" fill="#eeeeee">ES3</text>
</g>
<!-- graphics&#45;&gt;openGL_es3 -->
<g id="edge24" class="edge">
<title>graphics&#45;&gt;openGL_es3</title>
<path fill="none" stroke="#aa0000" stroke-width="4" d="M698.1,-1126.51C646,-1161.1 532.17,-1236.67 473.04,-1275.92"/>
<polygon fill="#aa0000" stroke="#aa0000" stroke-width="4" points="470.78,-1273.22 464.38,-1281.67 474.65,-1279.06 470.78,-1273.22"/>
</g>
<!-- context -->
<g id="node26" class="node">
<title>context</title>
<polygon fill="#664444" stroke="black" points="333.71,-1227.15 263.71,-1227.15 263.71,-1191.15 333.71,-1191.15 333.71,-1227.15"/>
<text text-anchor="middle" x="298.71" y="-1205.45" font-family="Times,serif" font-size="14.00" fill="#eeeeee">context</text>
</g>
<!-- openGL_es3&#45;&gt;context -->
<g id="edge25" class="edge">
<title>openGL_es3&#45;&gt;context</title>
<path fill="none" stroke="#aa0000" stroke-width="4" d="M407,-1281.51C385.84,-1267.38 356.95,-1248.07 334.33,-1232.95"/>
<polygon fill="#aa0000" stroke="#aa0000" stroke-width="4" points="336.25,-1230.03 326,-1227.38 332.37,-1235.85 336.25,-1230.03"/>
</g>
<!-- image -->
<g id="node27" class="node">
<title>image</title>
<polygon fill="#664444" stroke="black" points="564.27,-1426.76 504.27,-1426.76 504.27,-1390.76 564.27,-1390.76 564.27,-1426.76"/>
<text text-anchor="middle" x="534.27" y="-1405.06" font-family="Times,serif" font-size="14.00" fill="#eeeeee">image</text>
</g>
<!-- openGL_es3&#45;&gt;image -->
<g id="edge26" class="edge">
<title>openGL_es3&#45;&gt;image</title>
<path fill="none" stroke="#aa0000" stroke-width="4" d="M453.11,-1319.77C469.13,-1337.35 493.05,-1363.57 510.77,-1383"/>
<polygon fill="#aa0000" stroke="#aa0000" stroke-width="4" points="508.38,-1385.57 517.71,-1390.6 513.55,-1380.85 508.38,-1385.57"/>
</g>
<!-- textures -->
<g id="node28" class="node">
<title>textures</title>
<polygon fill="#664444" stroke="black" points="418.81,-1552.16 341.81,-1552.16 341.81,-1516.16 418.81,-1516.16 418.81,-1552.16"/>
<text text-anchor="middle" x="380.31" y="-1530.46" font-family="Times,serif" font-size="14.00" fill="#eeeeee">textures</text>
</g>
<!-- openGL_es3&#45;&gt;textures -->
<g id="edge27" class="edge">
<title>openGL_es3&#45;&gt;textures</title>
<path fill="none" stroke="#aa0000" stroke-width="4" d="M431.18,-1319.81C421.4,-1361 398.31,-1458.32 386.91,-1506.36"/>
<polygon fill="#aa0000" stroke="#aa0000" stroke-width="4" points="383.5,-1505.55 384.59,-1516.09 390.31,-1507.17 383.5,-1505.55"/>
</g>
<!-- shader -->
<g id="node32" class="node">
<title>shader</title>
<polygon fill="#664444" stroke="black" points="235.75,-1276.35 170.75,-1276.35 170.75,-1240.35 235.75,-1240.35 235.75,-1276.35"/>
<text text-anchor="middle" x="203.25" y="-1254.65" font-family="Times,serif" font-size="14.00" fill="#eeeeee">shader</text>
</g>
<!-- openGL_es3&#45;&gt;shader -->
<g id="edge31" class="edge">
<title>openGL_es3&#45;&gt;shader</title>
<path fill="none" stroke="#aa0000" stroke-width="4" d="M398.62,-1293.95C357.09,-1286.38 289.88,-1274.13 246.13,-1266.16"/>
<polygon fill="#aa0000" stroke="#aa0000" stroke-width="4" points="246.55,-1262.68 236.08,-1264.33 245.29,-1269.56 246.55,-1262.68"/>
</g>
<!-- geometry -->
<g id="node35" class="node">
<title>geometry</title>
<polygon fill="#664444" stroke="black" points="283.51,-1421.88 198.51,-1421.88 198.51,-1385.88 283.51,-1385.88 283.51,-1421.88"/>
<text text-anchor="middle" x="241.01" y="-1400.18" font-family="Times,serif" font-size="14.00" fill="#eeeeee">geometry</text>
</g>
<!-- openGL_es3&#45;&gt;geometry -->
<g id="edge34" class="edge">
<title>openGL_es3&#45;&gt;geometry</title>
<path fill="none" stroke="#aa0000" stroke-width="4" d="M399.55,-1319.87C366.84,-1337.2 318.63,-1362.75 283.97,-1381.12"/>
<polygon fill="#aa0000" stroke="#aa0000" stroke-width="4" points="282.22,-1378.08 275.02,-1385.86 285.5,-1384.27 282.22,-1378.08"/>
</g>
<!-- vbo -->
<g id="node38" class="node">
<title>vbo</title>
<polygon fill="#664444" stroke="black" points="394.95,-1179.78 340.95,-1179.78 340.95,-1143.78 394.95,-1143.78 394.95,-1179.78"/>
<text text-anchor="middle" x="367.95" y="-1158.08" font-family="Times,serif" font-size="14.00" fill="#eeeeee">vbo</text>
</g>
<!-- openGL_es3&#45;&gt;vbo -->
<g id="edge37" class="edge">
<title>openGL_es3&#45;&gt;vbo</title>
<path fill="none" stroke="#aa0000" stroke-width="4" d="M426.43,-1281.68C414.76,-1257.75 394.63,-1216.49 381.31,-1189.16"/>
<polygon fill="#aa0000" stroke="#aa0000" stroke-width="4" points="384.43,-1187.59 376.9,-1180.13 378.14,-1190.66 384.43,-1187.59"/>
</g>
<!-- vao -->
<g id="node39" class="node">
<title>vao</title>
<polygon fill="#664444" stroke="black" points="355.83,-1405.64 301.83,-1405.64 301.83,-1369.64 355.83,-1369.64 355.83,-1405.64"/>
<text text-anchor="middle" x="328.83" y="-1383.94" font-family="Times,serif" font-size="14.00" fill="#eeeeee">vao</text>
</g>
<!-- openGL_es3&#45;&gt;vao -->
<g id="edge38" class="edge">
<title>openGL_es3&#45;&gt;vao</title>
<path fill="none" stroke="#aa0000" stroke-width="4" d="M412.26,-1319.78C396.63,-1332.5 375.93,-1349.33 359.07,-1363.05"/>
<polygon fill="#aa0000" stroke="#aa0000" stroke-width="4" points="356.68,-1360.47 351.13,-1369.5 361.1,-1365.91 356.68,-1360.47"/>
</g>
<!-- frame_buffer -->
<g id="node40" class="node">
<title>frame_buffer</title>
<polygon fill="#664444" stroke="black" points="323.64,-1330.67 263.64,-1330.67 263.64,-1292.67 323.64,-1292.67 323.64,-1330.67"/>
<text text-anchor="middle" x="293.64" y="-1315.47" font-family="Times,serif" font-size="14.00" fill="#eeeeee">frame</text>
<text text-anchor="middle" x="293.64" y="-1300.47" font-family="Times,serif" font-size="14.00" fill="#eeeeee">buffer</text>
</g>
<!-- openGL_es3&#45;&gt;frame_buffer -->
<g id="edge39" class="edge">
<title>openGL_es3&#45;&gt;frame_buffer</title>
<path fill="none" stroke="#aa0000" stroke-width="4" d="M398.39,-1303.59C378.64,-1305.11 354.38,-1306.98 334.17,-1308.54"/>
<polygon fill="#aa0000" stroke="#aa0000" stroke-width="4" points="333.73,-1305.07 324.03,-1309.33 334.27,-1312.05 333.73,-1305.07"/>
</g>
<!-- render_buffer -->
<g id="node41" class="node">
<title>render_buffer</title>
<polygon fill="#664444" stroke="black" points="421.77,-1456.53 356.77,-1456.53 356.77,-1418.53 421.77,-1418.53 421.77,-1456.53"/>
<text text-anchor="middle" x="389.27" y="-1441.33" font-family="Times,serif" font-size="14.00" fill="#eeeeee">render</text>
<text text-anchor="middle" x="389.27" y="-1426.33" font-family="Times,serif" font-size="14.00" fill="#eeeeee">buffer</text>
</g>
<!-- openGL_es3&#45;&gt;render_buffer -->
<g id="edge40" class="edge">
<title>openGL_es3&#45;&gt;render_buffer</title>
<path fill="none" stroke="#aa0000" stroke-width="4" d="M429.26,-1319.73C421.43,-1342.78 408.17,-1381.84 399.08,-1408.62"/>
<polygon fill="#aa0000" stroke="#aa0000" stroke-width="4" points="395.72,-1407.63 395.82,-1418.22 402.35,-1409.88 395.72,-1407.63"/>
</g>
<!-- resc_mangr -->
<g id="node42" class="node">
<title>resc_mangr</title>
<polygon fill="#664444" stroke="black" points="515.35,-1478.21 435.35,-1478.21 435.35,-1440.21 515.35,-1440.21 515.35,-1478.21"/>
<text text-anchor="middle" x="475.35" y="-1463.01" font-family="Times,serif" font-size="14.00" fill="#eeeeee">resource</text>
<text text-anchor="middle" x="475.35" y="-1448.01" font-family="Times,serif" font-size="14.00" fill="#eeeeee">manager</text>
</g>
<!-- openGL_es3&#45;&gt;resc_mangr -->
<g id="edge41" class="edge">
<title>openGL_es3&#45;&gt;resc_mangr</title>
<path fill="none" stroke="#aa0000" stroke-width="4" d="M440.5,-1319.82C447.37,-1347.31 460.1,-1398.22 468.12,-1430.31"/>
<polygon fill="#aa0000" stroke="#aa0000" stroke-width="4" points="464.73,-1431.17 470.55,-1440.02 471.52,-1429.47 464.73,-1431.17"/>
</g>
<!-- color -->
<g id="node29" class="node">
<title>color</title>
<polygon fill="#664444" stroke="black" points="354.3,-1733.21 300.3,-1733.21 300.3,-1697.21 354.3,-1697.21 354.3,-1733.21"/>
<text text-anchor="middle" x="327.3" y="-1711.51" font-family="Times,serif" font-size="14.00" fill="#eeeeee">color</text>
</g>
<!-- textures&#45;&gt;color -->
<g id="edge28" class="edge">
<title>textures&#45;&gt;color</title>
<path fill="none" stroke="#aa0000" stroke-width="4" d="M375.03,-1552.19C365.77,-1583.82 346.52,-1649.56 335.51,-1687.18"/>
<polygon fill="#aa0000" stroke="#aa0000" stroke-width="4" points="332.08,-1686.41 332.63,-1696.99 338.8,-1688.38 332.08,-1686.41"/>
</g>
<!-- depth -->
<g id="node30" class="node">
<title>depth</title>
<polygon fill="#664444" stroke="black" points="288.06,-1695.5 230.06,-1695.5 230.06,-1659.5 288.06,-1659.5 288.06,-1695.5"/>
<text text-anchor="middle" x="259.06" y="-1673.8" font-family="Times,serif" font-size="14.00" fill="#eeeeee">depth</text>
</g>
<!-- textures&#45;&gt;depth -->
<g id="edge29" class="edge">
<title>textures&#45;&gt;depth</title>
<path fill="none" stroke="#aa0000" stroke-width="4" d="M364.95,-1552.32C343.72,-1577.41 305.29,-1622.84 281.03,-1651.53"/>
<polygon fill="#aa0000" stroke="#aa0000" stroke-width="4" points="278.08,-1649.6 274.29,-1659.49 283.42,-1654.12 278.08,-1649.6"/>
</g>
<!-- data -->
<g id="node31" class="node">
<title>data</title>
<polygon fill="#664444" stroke="black" points="434.2,-1734.12 380.2,-1734.12 380.2,-1698.12 434.2,-1698.12 434.2,-1734.12"/>
<text text-anchor="middle" x="407.2" y="-1712.42" font-family="Times,serif" font-size="14.00" fill="#eeeeee">data</text>
</g>
<!-- textures&#45;&gt;data -->
<g id="edge30" class="edge">
<title>textures&#45;&gt;data</title>
<path fill="none" stroke="#aa0000" stroke-width="4" d="M382.98,-1552.28C387.67,-1584.02 397.41,-1649.92 403.01,-1687.76"/>
<polygon fill="#aa0000" stroke="#aa0000" stroke-width="4" points="399.61,-1688.7 404.53,-1698.08 406.53,-1687.68 399.61,-1688.7"/>
</g>
<!-- program -->
<g id="node33" class="node">
<title>program</title>
<polygon fill="#664444" stroke="black" points="89.64,-1214.96 11.64,-1214.96 11.64,-1178.96 89.64,-1178.96 89.64,-1214.96"/>
<text text-anchor="middle" x="50.64" y="-1193.26" font-family="Times,serif" font-size="14.00" fill="#eeeeee">program</text>
</g>
<!-- shader&#45;&gt;program -->
<g id="edge32" class="edge">
<title>shader&#45;&gt;program</title>
<path fill="none" stroke="#aa0000" stroke-width="4" d="M170.52,-1245.18C149.73,-1236.82 122.46,-1225.85 99.19,-1216.49"/>
<polygon fill="#aa0000" stroke="#aa0000" stroke-width="4" points="100.4,-1213.2 89.82,-1212.72 97.79,-1219.7 100.4,-1213.2"/>
</g>
<!-- shader_builder -->
<g id="node34" class="node">
<title>shader_builder</title>
<polygon fill="#664444" stroke="black" points="76.52,-1295.95 8.52,-1295.95 8.52,-1257.95 76.52,-1257.95 76.52,-1295.95"/>
<text text-anchor="middle" x="42.52" y="-1280.75" font-family="Times,serif" font-size="14.00" fill="#eeeeee">shader</text>
<text text-anchor="middle" x="42.52" y="-1265.75" font-family="Times,serif" font-size="14.00" fill="#eeeeee">builder</text>
</g>
<!-- shader&#45;&gt;shader_builder -->
<g id="edge33" class="edge">
<title>shader&#45;&gt;shader_builder</title>
<path fill="none" stroke="#aa0000" stroke-width="4" d="M170.73,-1262.11C146.6,-1264.9 113.42,-1268.74 86.86,-1271.82"/>
<polygon fill="#aa0000" stroke="#aa0000" stroke-width="4" points="86.2,-1268.37 76.67,-1273 87,-1275.32 86.2,-1268.37"/>
</g>
<!-- instancing -->
<g id="node36" class="node">
<title>instancing</title>
<polygon fill="#664444" stroke="black" points="127.32,-1562.44 36.32,-1562.44 36.32,-1526.44 127.32,-1526.44 127.32,-1562.44"/>
<text text-anchor="middle" x="81.82" y="-1540.74" font-family="Times,serif" font-size="14.00" fill="#eeeeee">instancing</text>
</g>
<!-- geometry&#45;&gt;instancing -->
<g id="edge35" class="edge">
<title>geometry&#45;&gt;instancing</title>
<path fill="none" stroke="#aa0000" stroke-width="4" d="M220.52,-1421.97C192.34,-1446.85 141.52,-1491.73 109.84,-1519.7"/>
<polygon fill="#aa0000" stroke="#aa0000" stroke-width="4" points="107.4,-1517.18 102.22,-1526.43 112.04,-1522.43 107.4,-1517.18"/>
</g>
<!-- geo_builder -->
<g id="node37" class="node">
<title>geo_builder</title>
<polygon fill="#664444" stroke="black" points="84.66,-1487.45 -0.34,-1487.45 -0.34,-1449.45 84.66,-1449.45 84.66,-1487.45"/>
<text text-anchor="middle" x="42.16" y="-1472.25" font-family="Times,serif" font-size="14.00" fill="#eeeeee">geometry</text>
<text text-anchor="middle" x="42.16" y="-1457.25" font-family="Times,serif" font-size="14.00" fill="#eeeeee">builder</text>
</g>
<!-- geometry&#45;&gt;geo_builder -->
<g id="edge36" class="edge">
<title>geometry&#45;&gt;geo_builder</title>
<path fill="none" stroke="#aa0000" stroke-width="4" d="M198.35,-1417.74C167.94,-1427.61 126.88,-1440.94 94.5,-1451.46"/>
<polygon fill="#aa0000" stroke="#aa0000" stroke-width="4" points="93.17,-1448.21 84.74,-1454.62 95.34,-1454.87 93.17,-1448.21"/>
</g>
<!-- worlds -->
<g id="node44" class="node">
<title>worlds</title>
<polygon fill="#446644" stroke="black" points="1441.19,-1138.99 1376.19,-1138.99 1376.19,-1102.99 1441.19,-1102.99 1441.19,-1138.99"/>
<text text-anchor="middle" x="1408.69" y="-1117.29" font-family="Times,serif" font-size="14.00" fill="#eeeeee">worlds</text>
</g>
<!-- physics&#45;&gt;worlds -->
<g id="edge43" class="edge">
<title>physics&#45;&gt;worlds</title>
<path fill="none" stroke="#00aa00" stroke-width="4" d="M1330.06,-1095.48C1341.47,-1099.19 1354.27,-1103.34 1366.17,-1107.2"/>
<polygon fill="#00aa00" stroke="#00aa00" stroke-width="4" points="1365.32,-1110.6 1375.91,-1110.36 1367.48,-1103.94 1365.32,-1110.6"/>
</g>
<!-- shapes -->
<g id="node45" class="node">
<title>shapes</title>
<polygon fill="#446644" stroke="black" points="1396.09,-983.29 1330.09,-983.29 1330.09,-947.29 1396.09,-947.29 1396.09,-983.29"/>
<text text-anchor="middle" x="1363.09" y="-961.59" font-family="Times,serif" font-size="14.00" fill="#eeeeee">shapes</text>
</g>
<!-- physics&#45;&gt;shapes -->
<g id="edge44" class="edge">
<title>physics&#45;&gt;shapes</title>
<path fill="none" stroke="#00aa00" stroke-width="4" d="M1305.37,-1066.07C1316.61,-1046.44 1334.7,-1014.85 1347.64,-992.28"/>
<polygon fill="#00aa00" stroke="#00aa00" stroke-width="4" points="1350.72,-993.93 1352.66,-983.51 1344.65,-990.45 1350.72,-993.93"/>
</g>
<!-- bodies -->
<g id="node46" class="node">
<title>bodies</title>
<polygon fill="#446644" stroke="black" points="1516.14,-1112.86 1453.14,-1112.86 1453.14,-1076.86 1516.14,-1076.86 1516.14,-1112.86"/>
<text text-anchor="middle" x="1484.64" y="-1091.16" font-family="Times,serif" font-size="14.00" fill="#eeeeee">bodies</text>
</g>
<!-- physics&#45;&gt;bodies -->
<g id="edge45" class="edge">
<title>physics&#45;&gt;bodies</title>
<path fill="none" stroke="#00aa00" stroke-width="4" d="M1330.25,-1086.12C1362.18,-1087.92 1409.28,-1090.59 1443.05,-1092.5"/>
<polygon fill="#00aa00" stroke="#00aa00" stroke-width="4" points="1442.89,-1096 1453.07,-1093.07 1443.29,-1089.01 1442.89,-1096"/>
</g>
<!-- vehicles -->
<g id="node49" class="node">
<title>vehicles</title>
<polygon fill="#446644" stroke="black" points="1379.6,-1303.22 1305.6,-1303.22 1305.6,-1267.22 1379.6,-1267.22 1379.6,-1303.22"/>
<text text-anchor="middle" x="1342.6" y="-1281.52" font-family="Times,serif" font-size="14.00" fill="#eeeeee">vehicles</text>
</g>
<!-- physics&#45;&gt;vehicles -->
<g id="edge48" class="edge">
<title>physics&#45;&gt;vehicles</title>
<path fill="none" stroke="#00aa00" stroke-width="4" d="M1299.34,-1102.32C1307.69,-1137.62 1326.12,-1215.56 1336.02,-1257.4"/>
<polygon fill="#00aa00" stroke="#00aa00" stroke-width="4" points="1332.63,-1258.28 1338.34,-1267.21 1339.44,-1256.67 1332.63,-1258.28"/>
</g>
<!-- queries -->
<g id="node52" class="node">
<title>queries</title>
<polygon fill="#446644" stroke="black" points="1521.76,-1251.44 1451.76,-1251.44 1451.76,-1215.44 1521.76,-1215.44 1521.76,-1251.44"/>
<text text-anchor="middle" x="1486.76" y="-1229.74" font-family="Times,serif" font-size="14.00" fill="#eeeeee">queries</text>
</g>
<!-- physics&#45;&gt;queries -->
<g id="edge51" class="edge">
<title>physics&#45;&gt;queries</title>
<path fill="none" stroke="#00aa00" stroke-width="4" d="M1318.16,-1102.13C1352.42,-1128.81 1416.74,-1178.91 1455.27,-1208.92"/>
<polygon fill="#00aa00" stroke="#00aa00" stroke-width="4" points="1453.51,-1211.98 1463.55,-1215.37 1457.81,-1206.46 1453.51,-1211.98"/>
</g>
<!-- constraints -->
<g id="node56" class="node">
<title>constraints</title>
<polygon fill="#446644" stroke="black" points="1536.65,-994.34 1439.65,-994.34 1439.65,-958.34 1536.65,-958.34 1536.65,-994.34"/>
<text text-anchor="middle" x="1488.15" y="-972.64" font-family="Times,serif" font-size="14.00" fill="#eeeeee">constraints</text>
</g>
<!-- physics&#45;&gt;constraints -->
<g id="edge55" class="edge">
<title>physics&#45;&gt;constraints</title>
<path fill="none" stroke="#00aa00" stroke-width="4" d="M1327.36,-1066.08C1360.22,-1047.74 1411.25,-1019.26 1446.99,-999.31"/>
<polygon fill="#00aa00" stroke="#00aa00" stroke-width="4" points="1448.7,-1002.37 1455.72,-994.44 1445.29,-996.26 1448.7,-1002.37"/>
</g>
<!-- body_instances -->
<g id="node47" class="node">
<title>body_instances</title>
<polygon fill="#446644" stroke="black" points="1715.27,-1161.85 1631.27,-1161.85 1631.27,-1123.85 1715.27,-1123.85 1715.27,-1161.85"/>
<text text-anchor="middle" x="1673.27" y="-1146.65" font-family="Times,serif" font-size="14.00" fill="#eeeeee">body</text>
<text text-anchor="middle" x="1673.27" y="-1131.65" font-family="Times,serif" font-size="14.00" fill="#eeeeee">instances</text>
</g>
<!-- bodies&#45;&gt;body_instances -->
<g id="edge46" class="edge">
<title>bodies&#45;&gt;body_instances</title>
<path fill="none" stroke="#00aa00" stroke-width="4" d="M1516.21,-1102.89C1544.73,-1110.15 1587.24,-1120.96 1620.85,-1129.51"/>
<polygon fill="#00aa00" stroke="#00aa00" stroke-width="4" points="1620.42,-1133.02 1630.97,-1132.09 1622.14,-1126.23 1620.42,-1133.02"/>
</g>
<!-- body_manager -->
<g id="node48" class="node">
<title>body_manager</title>
<polygon fill="#446644" stroke="black" points="1713.55,-1088.19 1633.55,-1088.19 1633.55,-1050.19 1713.55,-1050.19 1713.55,-1088.19"/>
<text text-anchor="middle" x="1673.55" y="-1072.99" font-family="Times,serif" font-size="14.00" fill="#eeeeee">body</text>
<text text-anchor="middle" x="1673.55" y="-1057.99" font-family="Times,serif" font-size="14.00" fill="#eeeeee">manager</text>
</g>
<!-- bodies&#45;&gt;body_manager -->
<g id="edge47" class="edge">
<title>bodies&#45;&gt;body_manager</title>
<path fill="none" stroke="#00aa00" stroke-width="4" d="M1516.26,-1090.56C1545.39,-1086.6 1589.1,-1080.66 1623.06,-1076.05"/>
<polygon fill="#00aa00" stroke="#00aa00" stroke-width="4" points="1623.82,-1079.48 1633.26,-1074.66 1622.88,-1072.54 1623.82,-1079.48"/>
</g>
<!-- vehcl_instances -->
<g id="node50" class="node">
<title>vehcl_instances</title>
<polygon fill="#446644" stroke="black" points="1388.96,-1495.6 1304.96,-1495.6 1304.96,-1457.6 1388.96,-1457.6 1388.96,-1495.6"/>
<text text-anchor="middle" x="1346.96" y="-1480.4" font-family="Times,serif" font-size="14.00" fill="#eeeeee">vehicle</text>
<text text-anchor="middle" x="1346.96" y="-1465.4" font-family="Times,serif" font-size="14.00" fill="#eeeeee">instances</text>
</g>
<!-- vehicles&#45;&gt;vehcl_instances -->
<g id="edge49" class="edge">
<title>vehicles&#45;&gt;vehcl_instances</title>
<path fill="none" stroke="#00aa00" stroke-width="4" d="M1343.01,-1303.23C1343.76,-1336.3 1345.37,-1407 1346.29,-1447.15"/>
<polygon fill="#00aa00" stroke="#00aa00" stroke-width="4" points="1342.8,-1447.45 1346.52,-1457.37 1349.79,-1447.29 1342.8,-1447.45"/>
</g>
<!-- vehcl_manager -->
<g id="node51" class="node">
<title>vehcl_manager</title>
<polygon fill="#446644" stroke="black" points="1484.95,-1468.28 1404.95,-1468.28 1404.95,-1430.28 1484.95,-1430.28 1484.95,-1468.28"/>
<text text-anchor="middle" x="1444.95" y="-1453.08" font-family="Times,serif" font-size="14.00" fill="#eeeeee">vehicle</text>
<text text-anchor="middle" x="1444.95" y="-1438.08" font-family="Times,serif" font-size="14.00" fill="#eeeeee">manager</text>
</g>
<!-- vehicles&#45;&gt;vehcl_manager -->
<g id="edge50" class="edge">
<title>vehicles&#45;&gt;vehcl_manager</title>
<path fill="none" stroke="#00aa00" stroke-width="4" d="M1353.94,-1303.41C1371.78,-1332 1406.52,-1387.69 1427.54,-1421.38"/>
<polygon fill="#00aa00" stroke="#00aa00" stroke-width="4" points="1424.82,-1423.63 1433.08,-1430.26 1430.75,-1419.92 1424.82,-1423.63"/>
</g>
<!-- ray_cast -->
<g id="node53" class="node">
<title>ray_cast</title>
<polygon fill="#446644" stroke="black" points="1666.89,-1287.8 1612.89,-1287.8 1612.89,-1249.8 1666.89,-1249.8 1666.89,-1287.8"/>
<text text-anchor="middle" x="1639.89" y="-1272.6" font-family="Times,serif" font-size="14.00" fill="#eeeeee">ray</text>
<text text-anchor="middle" x="1639.89" y="-1257.6" font-family="Times,serif" font-size="14.00" fill="#eeeeee">cast</text>
</g>
<!-- queries&#45;&gt;ray_cast -->
<g id="edge52" class="edge">
<title>queries&#45;&gt;ray_cast</title>
<path fill="none" stroke="#00aa00" stroke-width="4" d="M1521.89,-1241.55C1546,-1247.12 1577.94,-1254.5 1602.52,-1260.17"/>
<polygon fill="#00aa00" stroke="#00aa00" stroke-width="4" points="1602.02,-1263.65 1612.55,-1262.49 1603.6,-1256.83 1602.02,-1263.65"/>
</g>
<!-- convex_sweep -->
<g id="node54" class="node">
<title>convex_sweep</title>
<polygon fill="#446644" stroke="black" points="1656.98,-1344.87 1590.98,-1344.87 1590.98,-1306.87 1656.98,-1306.87 1656.98,-1344.87"/>
<text text-anchor="middle" x="1623.98" y="-1329.67" font-family="Times,serif" font-size="14.00" fill="#eeeeee">convex</text>
<text text-anchor="middle" x="1623.98" y="-1314.67" font-family="Times,serif" font-size="14.00" fill="#eeeeee">sweep</text>
</g>
<!-- queries&#45;&gt;convex_sweep -->
<g id="edge53" class="edge">
<title>queries&#45;&gt;convex_sweep</title>
<path fill="none" stroke="#00aa00" stroke-width="4" d="M1513.54,-1251.48C1534.43,-1265.55 1563.68,-1285.25 1586.83,-1300.84"/>
<polygon fill="#00aa00" stroke="#00aa00" stroke-width="4" points="1585.12,-1303.92 1595.37,-1306.6 1589.03,-1298.11 1585.12,-1303.92"/>
</g>
<!-- convex_shape -->
<g id="node55" class="node">
<title>convex_shape</title>
<polygon fill="#446644" stroke="black" points="1591.14,-1396.31 1525.14,-1396.31 1525.14,-1358.31 1591.14,-1358.31 1591.14,-1396.31"/>
<text text-anchor="middle" x="1558.14" y="-1381.11" font-family="Times,serif" font-size="14.00" fill="#eeeeee">convex</text>
<text text-anchor="middle" x="1558.14" y="-1366.11" font-family="Times,serif" font-size="14.00" fill="#eeeeee">shape</text>
</g>
<!-- queries&#45;&gt;convex_shape -->
<g id="edge54" class="edge">
<title>queries&#45;&gt;convex_shape</title>
<path fill="none" stroke="#00aa00" stroke-width="4" d="M1495.8,-1251.66C1507.93,-1276.12 1529.62,-1319.81 1543.94,-1348.68"/>
<polygon fill="#00aa00" stroke="#00aa00" stroke-width="4" points="1540.91,-1350.45 1548.49,-1357.86 1547.18,-1347.34 1540.91,-1350.45"/>
</g>
<!-- hinge -->
<g id="node57" class="node">
<title>hinge</title>
<polygon fill="#446644" stroke="black" points="1668.56,-875.79 1612.56,-875.79 1612.56,-839.79 1668.56,-839.79 1668.56,-875.79"/>
<text text-anchor="middle" x="1640.56" y="-854.09" font-family="Times,serif" font-size="14.00" fill="#eeeeee">hinge</text>
</g>
<!-- constraints&#45;&gt;hinge -->
<g id="edge56" class="edge">
<title>constraints&#45;&gt;hinge</title>
<path fill="none" stroke="#00aa00" stroke-width="4" d="M1511.3,-958.33C1537.37,-938.06 1579.89,-904.98 1608.99,-882.34"/>
<polygon fill="#00aa00" stroke="#00aa00" stroke-width="4" points="1611.45,-884.87 1617.19,-875.97 1607.15,-879.34 1611.45,-884.87"/>
</g>
<!-- sixdof -->
<g id="node58" class="node">
<title>sixdof</title>
<polygon fill="#446644" stroke="black" points="1705.35,-947.44 1651.35,-947.44 1651.35,-911.44 1705.35,-911.44 1705.35,-947.44"/>
<text text-anchor="middle" x="1678.35" y="-925.74" font-family="Times,serif" font-size="14.00" fill="#eeeeee">6dof</text>
</g>
<!-- constraints&#45;&gt;sixdof -->
<g id="edge57" class="edge">
<title>constraints&#45;&gt;sixdof</title>
<path fill="none" stroke="#00aa00" stroke-width="4" d="M1537.13,-964.26C1569.63,-956.25 1611.6,-945.9 1641.31,-938.57"/>
<polygon fill="#00aa00" stroke="#00aa00" stroke-width="4" points="1642.41,-941.91 1651.28,-936.12 1640.73,-935.11 1642.41,-941.91"/>
</g>
<!-- audio_context -->
<g id="node60" class="node">
<title>audio_context</title>
<polygon fill="#444466" stroke="black" points="1044.14,-1284.96 974.14,-1284.96 974.14,-1246.96 1044.14,-1246.96 1044.14,-1284.96"/>
<text text-anchor="middle" x="1009.14" y="-1269.76" font-family="Times,serif" font-size="14.00" fill="#eeeeee">audio</text>
<text text-anchor="middle" x="1009.14" y="-1254.76" font-family="Times,serif" font-size="14.00" fill="#eeeeee">context</text>
</g>
<!-- audio&#45;&gt;audio_context -->
<g id="edge59" class="edge">
<title>audio&#45;&gt;audio_context</title>
<path fill="none" stroke="#0000aa" stroke-width="4" d="M1028.89,-1128.06C1025.06,-1154.8 1017.87,-1204.95 1013.31,-1236.83"/>
<polygon fill="#0000aa" stroke="#0000aa" stroke-width="4" points="1009.82,-1236.49 1011.87,-1246.89 1016.75,-1237.49 1009.82,-1236.49"/>
</g>
<!-- ogg_loader -->
<g id="node61" class="node">
<title>ogg_loader</title>
<polygon fill="#444466" stroke="black" points="1127.89,-1264.74 1065.89,-1264.74 1065.89,-1226.74 1127.89,-1226.74 1127.89,-1264.74"/>
<text text-anchor="middle" x="1096.89" y="-1249.54" font-family="Times,serif" font-size="14.00" fill="#eeeeee">ogg</text>
<text text-anchor="middle" x="1096.89" y="-1234.54" font-family="Times,serif" font-size="14.00" fill="#eeeeee">loader</text>
</g>
<!-- audio&#45;&gt;ogg_loader -->
<g id="edge60" class="edge">
<title>audio&#45;&gt;ogg_loader</title>
<path fill="none" stroke="#0000aa" stroke-width="4" d="M1040.18,-1127.89C1051.13,-1150.66 1070.1,-1190.07 1083.06,-1217"/>
<polygon fill="#0000aa" stroke="#0000aa" stroke-width="4" points="1080.04,-1218.8 1087.53,-1226.3 1086.35,-1215.77 1080.04,-1218.8"/>
</g>
</g>
</svg>
